<?xml version="1.0" encoding="utf-8"?>
<!-- Generator: Adobe Illustrator 21.1.0, SVG Export Plug-In . SVG Version: 6.00 Build 0)  -->
<svg version="1.1" id="Layer_1" xmlns="http://www.w3.org/2000/svg" xmlns:xlink="http://www.w3.org/1999/xlink" x="0px" y="0px"
	 viewBox="0 0 32 64" style="enable-background:new 0 0 32 64;" xml:space="preserve">
<style type="text/css">
	.st0{fill:#39B14A;}
	.st1{fill:#ED5A24;}
	.st2{fill:#FFFFFF;}
</style>
<g>
	<g>
		<g>
			<path class="st0" d="M14.5,14.9h0.2c1.7,0,3-0.6,4-1.7c2.2-2.5,1.8-6.7,1.8-7.1c-0.1-3-1.6-4.5-2.8-5.2C16.9,0.3,15.9,0,14.7,0
				h-0.1c-0.6,0-1.9,0.1-3.1,0.8C10.3,1.5,8.9,2.9,8.7,6c0,0.4-0.4,4.7,1.8,7.1C11.5,14.3,12.9,14.8,14.5,14.9L14.5,14.9z M10.3,6.1
				C10.3,6.1,10.3,6.1,10.3,6.1c0.2-4.1,3.1-4.6,4.3-4.6h0.1c1.5,0,4.2,0.7,4.3,4.5c0,0,0,0,0,0c0,0,0.4,3.9-1.4,6
				c-0.7,0.8-1.7,1.2-2.9,1.2h-0.1c-1.3,0-2.2-0.4-2.9-1.2C9.9,10.1,10.2,6.2,10.3,6.1L10.3,6.1z M10.3,6.1"/>
			<path class="st0" d="M26.4,21.9L26.4,21.9c0-0.1,0-0.1,0-0.2c0-1.1-0.1-3.8-2.6-4.6c0,0,0,0-0.1,0C21.2,16.5,19,15,19,15
				c-0.3-0.2-0.8-0.2-1.1,0.2c-0.2,0.3-0.2,0.8,0.2,1.1c0.1,0.1,2.4,1.7,5.2,2.4c1.3,0.5,1.5,1.9,1.5,3.2c0,0.1,0,0.1,0,0.1
				c0,0.5,0,1.3-0.1,1.8c-0.9,0.5-4.6,2.3-10.1,2.3c-5.5,0-9.2-1.8-10.1-2.3c-0.1-0.5-0.1-1.3-0.1-1.8c0,0,0-0.1,0-0.1
				c0-1.3,0.2-2.7,1.5-3.2c2.8-0.7,5.1-2.3,5.2-2.4c0.3-0.2,0.4-0.7,0.2-1.1c-0.2-0.3-0.7-0.4-1.1-0.2c0,0-2.2,1.5-4.7,2.2
				c0,0,0,0-0.1,0C3,18,3,20.6,2.9,21.8c0,0.1,0,0.1,0,0.1v0c0,0.3,0,1.8,0.3,2.6c0.1,0.1,0.2,0.3,0.3,0.4c0.2,0.1,4.3,2.7,11.2,2.7
				s11-2.6,11.2-2.7c0.1-0.1,0.2-0.2,0.3-0.4C26.4,23.7,26.4,22.2,26.4,21.9L26.4,21.9z M26.4,21.9"/>
		</g>
		<g>
			<g>
				<circle class="st1" cx="21.7" cy="24.6" r="7.4"/>
			</g>
			<g>
				<path class="st2" d="M21.1,25.2h-3.2v-1.1h3.2v-3.2h1.2v3.2h3.2v1.1h-3.2v3.2h-1.2V25.2z"/>
			</g>
		</g>
	</g>
	<g>
		<g>
			<path class="st1" d="M14.5,46.9h0.2c1.7,0,3-0.6,4-1.7c2.2-2.5,1.8-6.7,1.8-7.1c-0.1-3-1.6-4.5-2.8-5.2c-0.9-0.5-1.9-0.8-3.1-0.8
				h-0.1c-0.6,0-1.9,0.1-3.1,0.8c-1.2,0.7-2.7,2.1-2.8,5.2c0,0.4-0.4,4.7,1.8,7.1C11.5,46.3,12.9,46.8,14.5,46.9L14.5,46.9z
				 M10.3,38.1C10.3,38.1,10.3,38.1,10.3,38.1c0.2-4.1,3.1-4.6,4.3-4.6h0.1c1.5,0,4.2,0.7,4.3,4.5c0,0,0,0,0,0c0,0,0.4,3.9-1.4,6
				c-0.7,0.8-1.7,1.2-2.9,1.2h-0.1c-1.3,0-2.2-0.4-2.9-1.2C9.9,42.1,10.2,38.2,10.3,38.1L10.3,38.1z M10.3,38.1"/>
			<path class="st1" d="M26.4,53.9L26.4,53.9c0-0.1,0-0.1,0-0.2c0-1.1-0.1-3.8-2.6-4.6c0,0,0,0-0.1,0C21.2,48.5,19,47,19,47
				c-0.3-0.2-0.8-0.2-1.1,0.2c-0.2,0.3-0.2,0.8,0.2,1.1c0.1,0.1,2.4,1.7,5.2,2.4c1.3,0.5,1.5,1.9,1.5,3.2c0,0.1,0,0.1,0,0.1
				c0,0.5,0,1.3-0.1,1.8c-0.9,0.5-4.6,2.3-10.1,2.3c-5.5,0-9.2-1.8-10.1-2.3c-0.1-0.5-0.1-1.3-0.1-1.8c0,0,0-0.1,0-0.1
				c0-1.3,0.2-2.7,1.5-3.2c2.8-0.7,5.1-2.3,5.2-2.4c0.3-0.2,0.4-0.7,0.2-1.1c-0.2-0.3-0.7-0.4-1.1-0.2c0,0-2.2,1.5-4.7,2.2
				c0,0,0,0-0.1,0C3,50,3,52.6,2.9,53.8c0,0.1,0,0.1,0,0.1v0c0,0.3,0,1.8,0.3,2.6c0.1,0.1,0.2,0.3,0.3,0.4c0.2,0.1,4.3,2.7,11.2,2.7
				s11-2.6,11.2-2.7c0.1-0.1,0.2-0.2,0.3-0.4C26.4,55.7,26.4,54.2,26.4,53.9L26.4,53.9z M26.4,53.9"/>
		</g>
		<g>
			<g>
				<circle class="st0" cx="21.7" cy="56.6" r="7.4"/>
			</g>
			<g>
				<path class="st2" d="M21.1,57.2h-3.2v-1.1h3.2v-3.2h1.2v3.2h3.2v1.1h-3.2v3.2h-1.2V57.2z"/>
			</g>
		</g>
	</g>
</g>
</svg>
