<?xml version="1.0" encoding="utf-8"?>
<!-- Generator: Adobe Illustrator 21.1.0, SVG Export Plug-In . SVG Version: 6.00 Build 0)  -->
<svg version="1.1" id="Layer_1" xmlns="http://www.w3.org/2000/svg" xmlns:xlink="http://www.w3.org/1999/xlink" x="0px" y="0px"
	 viewBox="0 0 32 64" style="enable-background:new 0 0 32 64;" xml:space="preserve">
<style type="text/css">
	.st0{fill:#39B54A;}
	.st1{fill:#FFFFFF;}
	.st2{fill:#D7222B;}
</style>
<g>
	<circle class="st0" cx="16" cy="16" r="16"/>
	<g>
		<g>
			<path class="st1" d="M3.9,10.9c3,4.3,2.7,8.7,2.9,13.6c0,0.9,1.2,1,1.5,0.2c0.7-2,0.8-11.1,2.5-11.8c2.2-0.9,2.2,6.1,3.8,7
				c1.2,0.6,1.8,0.2,2.4-0.8c0.6-1-0.1-2.6,0.3-3.6c1.4-3.4,2.4,2.4,2.5,4c0.1,1,1.4,1,1.5,0c0.1-0.8-0.2-3.1,0.4-3.6
				c2.1-2.2,2.1,1.4,2.5,2.4c0.3,0.8,0.3,2,1.4,2c1.1,0,1.2-1.1,1.5-1.8c0.3-0.8,0-3.5,0.8-3.2c1,0.3,1,3.5,1,4.3c0,1,1.5,1,1.5,0
				c-0.1-1.5-0.2-6.8-2.8-6.8c-0.8,0-1,0.6-1.4,1.2c-0.3,0.4-0.2,1.2-0.3,1.7c-0.2,1,0.4,3.3-0.3,1.9c-0.8-1.6-0.2-5.2-3.2-4.8
				c-2.7,0.4-2.4,4.8-2.6,6.7c0.5,0,1,0,1.5,0c-0.1-1.8-0.9-8.3-3.9-7.7c-1.1,0.2-1.2,1.1-1.5,2c-0.2,0.6,0.3,3.3-0.1,3.6
				c-1.3,0.9-1.3-1.4-1.5-2.1c-0.5-1.9-1.4-6-4.1-4C7,13.6,7.9,21,6.8,24.3c0.5,0.1,1,0.1,1.5,0.2C8,19.2,8.4,14.7,5.1,10.1
				C4.6,9.3,3.3,10.1,3.9,10.9L3.9,10.9z"/>
		</g>
	</g>
</g>
<g>
	<circle class="st2" cx="16" cy="48" r="16"/>
	<g>
		<g>
			<path class="st1" d="M3.9,42.9c3,4.3,2.7,8.7,2.9,13.6c0,0.9,1.2,1,1.5,0.2c0.7-2,0.8-11.1,2.5-11.8c2.2-0.9,2.2,6.1,3.8,7
				c1.2,0.6,1.8,0.2,2.4-0.8c0.6-1-0.1-2.6,0.3-3.6c1.4-3.4,2.4,2.4,2.5,4c0.1,1,1.4,1,1.5,0c0.1-0.8-0.2-3.1,0.4-3.6
				c2.1-2.2,2.1,1.4,2.5,2.4c0.3,0.8,0.3,2,1.4,2c1.1,0,1.2-1.1,1.5-1.8c0.3-0.8,0-3.5,0.8-3.2c1,0.3,1,3.5,1,4.3c0,1,1.5,1,1.5,0
				c-0.1-1.5-0.2-6.8-2.8-6.8c-0.8,0-1,0.6-1.4,1.2c-0.3,0.4-0.2,1.2-0.3,1.7c-0.2,1,0.4,3.3-0.3,1.9c-0.8-1.6-0.2-5.2-3.2-4.8
				c-2.7,0.4-2.4,4.8-2.6,6.7c0.5,0,1,0,1.5,0c-0.1-1.8-0.9-8.3-3.9-7.7c-1.1,0.2-1.2,1.1-1.5,2c-0.2,0.6,0.3,3.3-0.1,3.6
				c-1.3,0.9-1.3-1.4-1.5-2.1c-0.5-1.9-1.4-6-4.1-4C7,45.6,7.9,53,6.8,56.3c0.5,0.1,1,0.1,1.5,0.2C8,51.2,8.4,46.7,5.1,42.1
				C4.6,41.3,3.3,42.1,3.9,42.9L3.9,42.9z"/>
		</g>
	</g>
</g>
</svg>
