<?xml version="1.0" encoding="utf-8"?>
<!-- Generator: Adobe Illustrator 21.1.0, SVG Export Plug-In . SVG Version: 6.00 Build 0)  -->
<svg version="1.1" id="Layer_1" xmlns="http://www.w3.org/2000/svg" xmlns:xlink="http://www.w3.org/1999/xlink" x="0px" y="0px"
	 viewBox="0 0 32 64" style="enable-background:new 0 0 32 64;" xml:space="preserve">
<style type="text/css">
	.st0{fill:#3B72B1;}
	.st1{fill:#FFFFFF;}
	.st2{fill:#C02E2E;}
</style>
<g>
	<circle class="st0" cx="16" cy="16" r="16"/>
	<g>
		<path class="st1" d="M13,22.9c-0.3,0-0.6-0.3-0.6-0.6v-4c0-0.3,0.3-0.6,0.6-0.6c0.3,0,0.6,0.3,0.6,0.6v4
			C13.6,22.6,13.3,22.9,13,22.9z"/>
		<path class="st1" d="M16,22.9c-0.3,0-0.6-0.3-0.6-0.6v-4c0-0.3,0.3-0.6,0.6-0.6c0.3,0,0.6,0.3,0.6,0.6v4
			C16.6,22.6,16.3,22.9,16,22.9z"/>
		<path class="st1" d="M19,22.9c-0.3,0-0.6-0.3-0.6-0.6v-4c0-0.3,0.3-0.6,0.6-0.6c0.3,0,0.6,0.3,0.6,0.6v4
			C19.7,22.6,19.4,22.9,19,22.9z"/>
		<path class="st1" d="M23.1,13.1l0.5,0c0,0,0.1,0,0.1,0c0.1,0,0.2-0.1,0.3-0.2c0.1-0.1,0.2-0.3,0.2-0.4l0-2.1
			c0-0.7-0.3-1.3-0.8-1.8C23,8,22.3,7.8,21.6,7.8C21.3,7.8,21,8,21,8.4C21,8.7,21.3,9,21.6,9c0.4,0,0.7,0.1,0.9,0.4
			c0.3,0.3,0.4,0.6,0.4,0.9l0,1.5l-13.9,0l0-1.5C9.1,9.6,9.7,9,10.4,9L17,9c0.3,0,0.6-0.3,0.6-0.6c0-0.3-0.3-0.6-0.6-0.6l-3.7,0
			l0-1.7l5.6,0l0,2.3c0,0.3,0.3,0.6,0.6,0.6c0,0,0.1,0,0.1,0C19.8,8.9,20,8.7,20,8.4l0-3c0-0.2-0.1-0.3-0.2-0.4
			c-0.1-0.1-0.3-0.2-0.4-0.2l-6.8,0c-0.3,0-0.6,0.3-0.6,0.6l0,2.3l-1.6,0c-1.4,0-2.6,1.2-2.6,2.6l0,2.1c0,0.3,0.3,0.6,0.6,0.6l8.6,0
			"/>
		<path class="st1" d="M20.5,14.6"/>
		<path class="st1" d="M21.4,25.6H10.6v-9.7c-0.4,0-0.8,0-1.3,0v10.3c0,0.3,0.3,0.6,0.6,0.6h12.1c0.3,0,0.6-0.3,0.6-0.6v-9.6
			c-0.4,0-0.8-0.1-1.3-0.1V25.6z"/>
		<path class="st1" d="M10.6,13.3h10.9v9.7c0.4,0,0.8,0,1.3,0V12.7c0-0.3-0.3-0.6-0.6-0.6H9.9c-0.3,0-0.6,0.3-0.6,0.6v9.6
			c0.4,0,0.8,0.1,1.3,0.1V13.3z"/>
	</g>
</g>
<g>
	<circle class="st2" cx="16" cy="48" r="16"/>
	<g>
		<path class="st1" d="M13,54.9c-0.3,0-0.6-0.3-0.6-0.6v-4c0-0.3,0.3-0.6,0.6-0.6c0.3,0,0.6,0.3,0.6,0.6v4
			C13.6,54.6,13.3,54.9,13,54.9z"/>
		<path class="st1" d="M16,54.9c-0.3,0-0.6-0.3-0.6-0.6v-4c0-0.3,0.3-0.6,0.6-0.6c0.3,0,0.6,0.3,0.6,0.6v4
			C16.6,54.6,16.3,54.9,16,54.9z"/>
		<path class="st1" d="M19,54.9c-0.3,0-0.6-0.3-0.6-0.6v-4c0-0.3,0.3-0.6,0.6-0.6c0.3,0,0.6,0.3,0.6,0.6v4
			C19.7,54.6,19.4,54.9,19,54.9z"/>
		<path class="st1" d="M23.1,45.1l0.5,0c0,0,0.1,0,0.1,0c0.1,0,0.2-0.1,0.3-0.2c0.1-0.1,0.2-0.3,0.2-0.4l0-2.1
			c0-0.7-0.3-1.3-0.8-1.8c-0.5-0.5-1.1-0.8-1.8-0.8c-0.3,0-0.6,0.3-0.6,0.6c0,0.3,0.3,0.6,0.6,0.6c0.4,0,0.7,0.1,0.9,0.4
			c0.3,0.3,0.4,0.6,0.4,0.9l0,1.5l-13.9,0l0-1.5c0-0.7,0.6-1.3,1.3-1.3l6.6,0c0.3,0,0.6-0.3,0.6-0.6c0-0.3-0.3-0.6-0.6-0.6l-3.7,0
			l0-1.7l5.6,0l0,2.3c0,0.3,0.3,0.6,0.6,0.6c0,0,0.1,0,0.1,0c0.3-0.1,0.5-0.3,0.5-0.6l0-3c0-0.2-0.1-0.3-0.2-0.4
			c-0.1-0.1-0.3-0.2-0.4-0.2l-6.8,0c-0.3,0-0.6,0.3-0.6,0.6l0,2.3l-1.6,0c-1.4,0-2.6,1.2-2.6,2.6l0,2.1c0,0.3,0.3,0.6,0.6,0.6l8.6,0
			"/>
		<path class="st1" d="M20.5,46.6"/>
		<path class="st1" d="M21.4,57.6H10.6v-9.7c-0.4,0-0.8,0-1.3,0v10.3c0,0.3,0.3,0.6,0.6,0.6h12.1c0.3,0,0.6-0.3,0.6-0.6v-9.6
			c-0.4,0-0.8-0.1-1.3-0.1V57.6z"/>
		<path class="st1" d="M10.6,45.3h10.9v9.7c0.4,0,0.8,0,1.3,0V44.7c0-0.3-0.3-0.6-0.6-0.6H9.9c-0.3,0-0.6,0.3-0.6,0.6v9.6
			c0.4,0,0.8,0.1,1.3,0.1V45.3z"/>
	</g>
</g>
</svg>
