<?xml version="1.0" encoding="utf-8"?>
<!-- Generator: Adobe Illustrator 21.1.0, SVG Export Plug-In . SVG Version: 6.00 Build 0)  -->
<svg version="1.1" xmlns="http://www.w3.org/2000/svg" xmlns:xlink="http://www.w3.org/1999/xlink" x="0px" y="0px"
	 viewBox="0 0 24 48" style="enable-background:new 0 0 24 48;" xml:space="preserve">
<style type="text/css">
	.st0{fill:#F2F2F2;}
	.st1{fill:#CC0000;}
	.st2{fill:#FFFFFF;}
</style>
<g id="Layer_1">
</g>
<g id="Layer_5">
</g>
<g id="Layer_7">
</g>
<g id="Layer_4">
</g>
<g id="Layer_8">
</g>
<g id="Layer_2">
</g>
<g id="isgruplari">
	<g>
		<circle class="st0" cx="12" cy="12" r="12"/>
		<g>
			<g>
				<path class="st1" d="M9.7,18.5c-0.2,0-0.4-0.1-0.5-0.2l-3.4-3.4c-0.1-0.1-0.2-0.3-0.2-0.5s0.1-0.4,0.2-0.5l9.3-9.3
					C15.6,4,16.5,4,17,4.5L19.5,7c0.3,0.3,0.4,0.6,0.4,1c0,0.4-0.1,0.7-0.4,1l-9.3,9.3C10.1,18.4,9.9,18.5,9.7,18.5z M7.3,14.3
					l2.4,2.4L18.4,8l-2.4-2.4L7.3,14.3z"/>
			</g>
			<g>
				<path class="st1" d="M4.8,19.9c-0.2,0-0.4-0.1-0.5-0.2c-0.2-0.2-0.3-0.5-0.2-0.7l1.5-4.8c0.1-0.2,0.3-0.4,0.5-0.5
					c0.2-0.1,0.5,0,0.7,0.2l3.4,3.4c0.2,0.2,0.3,0.4,0.2,0.7s-0.3,0.4-0.5,0.5L5,19.8C4.9,19.9,4.9,19.9,4.8,19.9z M6.6,15.7
					l-0.7,2.4l2.4-0.7L6.6,15.7z"/>
			</g>
			<g>
				<path class="st1" d="M4.8,19.9c-0.2,0-0.4-0.1-0.5-0.2c-0.2-0.2-0.3-0.5-0.2-0.7L4.7,17c0.1-0.2,0.3-0.4,0.5-0.5
					c0.2-0.1,0.5,0,0.7,0.2l1.4,1.4c0.2,0.2,0.3,0.4,0.2,0.7S7.2,19.2,7,19.3L5,19.9C5,19.9,4.9,19.9,4.8,19.9z"/>
			</g>
		</g>
	</g>
	<g>
		<circle class="st1" cx="12" cy="36" r="12"/>
		<g>
			<g>
				<path class="st2" d="M9.7,42.5c-0.2,0-0.4-0.1-0.5-0.2l-3.4-3.4c-0.1-0.1-0.2-0.3-0.2-0.5s0.1-0.4,0.2-0.5l9.3-9.3
					c0.5-0.5,1.4-0.5,1.9,0l2.5,2.5c0.3,0.3,0.4,0.6,0.4,1c0,0.4-0.1,0.7-0.4,1l-9.3,9.3C10.1,42.4,9.9,42.5,9.7,42.5z M7.3,38.3
					l2.4,2.4l8.7-8.7l-2.4-2.4L7.3,38.3z"/>
			</g>
			<g>
				<path class="st2" d="M4.8,43.9c-0.2,0-0.4-0.1-0.5-0.2c-0.2-0.2-0.3-0.5-0.2-0.7l1.5-4.8c0.1-0.2,0.3-0.4,0.5-0.5
					c0.2-0.1,0.5,0,0.7,0.2l3.4,3.4c0.2,0.2,0.3,0.4,0.2,0.7s-0.3,0.4-0.5,0.5L5,43.8C4.9,43.9,4.9,43.9,4.8,43.9z M6.6,39.7
					l-0.7,2.4l2.4-0.7L6.6,39.7z"/>
			</g>
			<g>
				<path class="st2" d="M4.8,43.9c-0.2,0-0.4-0.1-0.5-0.2c-0.2-0.2-0.3-0.5-0.2-0.7L4.7,41c0.1-0.2,0.3-0.4,0.5-0.5
					c0.2-0.1,0.5,0,0.7,0.2l1.4,1.4c0.2,0.2,0.3,0.4,0.2,0.7S7.2,43.2,7,43.3L5,43.9C5,43.9,4.9,43.9,4.8,43.9z"/>
			</g>
		</g>
	</g>
</g>
<g id="Guide">
</g>
<g id="Layer_6">
</g>
</svg>
