<?xml version="1.0" encoding="utf-8"?>
<!-- Generator: Adobe Illustrator 21.1.0, SVG Export Plug-In . SVG Version: 6.00 Build 0)  -->
<svg version="1.1" xmlns="http://www.w3.org/2000/svg" xmlns:xlink="http://www.w3.org/1999/xlink" x="0px" y="0px"
	 viewBox="0 0 32 64" style="enable-background:new 0 0 32 64;" xml:space="preserve">
<style type="text/css">
	.st0{fill:#0071BC;}
	.st1{fill:none;stroke:#FFFFFF;stroke-width:1.9394;stroke-linecap:round;stroke-linejoin:round;stroke-miterlimit:10;}
	.st2{fill:#CC0000;}
</style>
<g id="Layer_1">
</g>
<g id="Layer_5">
</g>
<g id="Layer_7">
</g>
<g id="Layer_4">
</g>
<g id="Layer_8">
</g>
<g id="Layer_2">
</g>
<g id="isgruplari">
	<g>
		<circle class="st0" cx="16" cy="16" r="16"/>
		<g>
			<path class="st1" d="M12.9,23.7l-4.5-4.5L20.8,6.7c0.3-0.3,0.9-0.3,1.2,0l3.3,3.3c0.3,0.3,0.3,0.9,0,1.2L12.9,23.7z"/>
			<polygon class="st1" points="8.4,19.1 6.4,25.5 12.9,23.7 			"/>
			<polygon class="st1" points="7.2,23 6.5,25.5 9,24.8 			"/>
		</g>
	</g>
	<g>
		<circle class="st2" cx="16" cy="48" r="16"/>
		<g>
			<path class="st1" d="M12.9,55.7l-4.5-4.5l12.4-12.4c0.3-0.3,0.9-0.3,1.2,0l3.3,3.3c0.3,0.3,0.3,0.9,0,1.2L12.9,55.7z"/>
			<polygon class="st1" points="8.4,51.1 6.4,57.5 12.9,55.7 			"/>
			<polygon class="st1" points="7.2,55 6.5,57.5 9,56.8 			"/>
		</g>
	</g>
</g>
<g id="Guide">
</g>
<g id="Layer_6">
</g>
</svg>
