<?xml version="1.0" encoding="utf-8"?>
<!-- Generator: Adobe Illustrator 21.1.0, SVG Export Plug-In . SVG Version: 6.00 Build 0)  -->
<svg version="1.1" id="Layer_1" xmlns="http://www.w3.org/2000/svg" xmlns:xlink="http://www.w3.org/1999/xlink" x="0px" y="0px"
	 viewBox="0 0 32 64" style="enable-background:new 0 0 32 64;" xml:space="preserve">
<style type="text/css">
	.st0{fill:#39B54A;}
	.st1{fill:#FFFFFF;}
	.st2{fill:#F15A24;}
</style>
<g>
	<circle class="st0" cx="16" cy="16" r="16"/>
	<g>
		<path class="st1" d="M11.3,26.5c-1.4,0-2.8-0.6-3.8-1.6c-1-1-1.6-2.4-1.6-3.8c0-1.4,0.6-2.8,1.6-3.8L18.2,6.7
			c1.6-1.6,4.1-1.5,5.8,0.2c0.8,0.8,1.3,1.8,1.3,2.9c0.1,1.1-0.4,2.1-1.1,2.9l-10,10c-1,1-2.7,1-3.7,0c-0.5-0.5-0.8-1.1-0.8-1.8
			s0.3-1.4,0.8-1.8l6.8-6.8c0.3-0.3,0.8-0.3,1.1,0c0.3,0.3,0.3,0.8,0,1.1l-6.8,6.8c-0.2,0.2-0.3,0.5-0.3,0.7s0.1,0.5,0.3,0.7
			c0.4,0.4,1.1,0.4,1.5,0l10-10c0.5-0.5,0.7-1.1,0.7-1.8c0-0.7-0.3-1.3-0.9-1.8c-1.1-1.1-2.6-1.2-3.6-0.2L8.7,18.5
			c-0.7,0.7-1.1,1.7-1.1,2.7c0,1,0.4,2,1.1,2.7c0.7,0.7,1.7,1.1,2.7,1.1c1,0,2-0.4,2.7-1.1l10.7-10.7c0.3-0.3,0.8-0.3,1.1,0
			c0.3,0.3,0.3,0.8,0,1.1L15.1,24.9C14.1,25.9,12.8,26.5,11.3,26.5z"/>
	</g>
</g>
<g>
	<circle class="st2" cx="16" cy="48" r="16"/>
	<g>
		<path class="st1" d="M11.3,58.5c-1.4,0-2.8-0.6-3.8-1.6c-1-1-1.6-2.4-1.6-3.8c0-1.4,0.6-2.8,1.6-3.8l10.7-10.7
			c1.6-1.6,4.1-1.5,5.8,0.2c0.8,0.8,1.3,1.8,1.3,2.9c0.1,1.1-0.4,2.1-1.1,2.9l-10,10c-1,1-2.7,1-3.7,0c-0.5-0.5-0.8-1.1-0.8-1.8
			c0-0.7,0.3-1.4,0.8-1.8l6.8-6.8c0.3-0.3,0.8-0.3,1.1,0c0.3,0.3,0.3,0.8,0,1.1l-6.8,6.8c-0.2,0.2-0.3,0.5-0.3,0.7
			c0,0.3,0.1,0.5,0.3,0.7c0.4,0.4,1.1,0.4,1.5,0l10-10c0.5-0.5,0.7-1.1,0.7-1.8c0-0.7-0.3-1.3-0.9-1.8c-1.1-1.1-2.6-1.2-3.6-0.2
			L8.7,50.5c-0.7,0.7-1.1,1.7-1.1,2.7s0.4,2,1.1,2.7c0.7,0.7,1.7,1.1,2.7,1.1c1,0,2-0.4,2.7-1.1l10.7-10.7c0.3-0.3,0.8-0.3,1.1,0
			c0.3,0.3,0.3,0.8,0,1.1L15.1,56.9C14.1,57.9,12.8,58.5,11.3,58.5z"/>
	</g>
</g>
</svg>
