<?xml version="1.0" encoding="utf-8"?>
<!-- Generator: Adobe Illustrator 21.1.0, SVG Export Plug-In . SVG Version: 6.00 Build 0)  -->
<svg version="1.1" xmlns="http://www.w3.org/2000/svg" xmlns:xlink="http://www.w3.org/1999/xlink" x="0px" y="0px"
	 viewBox="0 0 32 64" style="enable-background:new 0 0 32 64;" xml:space="preserve">
<style type="text/css">
	.st0{fill:#39B54A;}
	.st1{opacity:0.5;fill:#FFFFFF;}
	.st2{fill:#FFFFFF;}
	.st3{fill:#CC0000;}
</style>
<g id="Layer_1">
</g>
<g id="Layer_5">
</g>
<g id="Layer_7">
</g>
<g id="Layer_4">
</g>
<g id="Layer_8">
</g>
<g id="Layer_2">
</g>
<g id="isgruplari">
	<g>
		<g>
			<circle class="st0" cx="16" cy="16" r="16"/>
		</g>
		<path class="st1" d="M6,8v16.6h20.5V8H6z M21.3,9.3v2.6h-2.6V9.3H21.3z M13.6,15.7h-2.6v-2.6h2.6V15.7z M14.9,13.1h2.6v2.6h-2.6
			V13.1z M13.6,16.9v2.6h-2.6v-2.6H13.6z M14.9,16.9h2.6v2.6h-2.6V16.9z M18.8,16.9h2.6v2.6h-2.6V16.9z M18.8,15.7v-2.6h2.6v2.6
			H18.8z M17.5,9.3v2.6h-2.6V9.3H17.5z M13.6,9.3v2.6h-2.6V9.3H13.6z M7.2,9.3h2.6v2.6H7.2V9.3z M7.2,13.1h2.6v2.6H7.2V13.1z
			 M7.2,16.9h2.6v2.6H7.2V16.9z M7.2,23.3v-2.6h2.6v2.6H7.2z M11.1,23.3v-2.6h2.6v2.6H11.1z M14.9,23.3v-2.6h2.6v2.6H14.9z
			 M18.8,23.3v-2.6h2.6v2.6H18.8z M25.1,23.3h-2.6v-2.6h2.6V23.3z M25.1,19.5h-2.6v-2.6h2.6V19.5z M25.1,15.7h-2.6v-2.6h2.6V15.7z
			 M25.1,11.8h-2.6V9.3h2.6V11.8z M25.1,11.8"/>
		<g>
			<g>
				<rect x="21.5" y="17.5" class="st2" width="1" height="8.2"/>
			</g>
			<g>
				<g>
					<polygon class="st2" points="17.9,22.4 18.6,21.7 22,25.3 25.4,21.7 26.1,22.4 22,26.8 					"/>
				</g>
			</g>
		</g>
	</g>
	<g>
		<g>
			<circle class="st3" cx="16" cy="48" r="16"/>
		</g>
		<path class="st1" d="M6,40v16.6h20.5V40H6z M21.3,41.3v2.6h-2.6v-2.6H21.3z M13.6,47.7h-2.6v-2.6h2.6V47.7z M14.9,45.1h2.6v2.6
			h-2.6V45.1z M13.6,48.9v2.6h-2.6v-2.6H13.6z M14.9,48.9h2.6v2.6h-2.6V48.9z M18.8,48.9h2.6v2.6h-2.6V48.9z M18.8,47.7v-2.6h2.6
			v2.6H18.8z M17.5,41.3v2.6h-2.6v-2.6H17.5z M13.6,41.3v2.6h-2.6v-2.6H13.6z M7.2,41.3h2.6v2.6H7.2V41.3z M7.2,45.1h2.6v2.6H7.2
			V45.1z M7.2,48.9h2.6v2.6H7.2V48.9z M7.2,55.3v-2.6h2.6v2.6H7.2z M11.1,55.3v-2.6h2.6v2.6H11.1z M14.9,55.3v-2.6h2.6v2.6H14.9z
			 M18.8,55.3v-2.6h2.6v2.6H18.8z M25.1,55.3h-2.6v-2.6h2.6V55.3z M25.1,51.5h-2.6v-2.6h2.6V51.5z M25.1,47.7h-2.6v-2.6h2.6V47.7z
			 M25.1,43.8h-2.6v-2.6h2.6V43.8z M25.1,43.8"/>
		<g>
			<g>
				<rect x="21.5" y="49.5" class="st2" width="1" height="8.2"/>
			</g>
			<g>
				<g>
					<polygon class="st2" points="17.9,54.4 18.6,53.7 22,57.3 25.4,53.7 26.1,54.4 22,58.8 					"/>
				</g>
			</g>
		</g>
	</g>
</g>
<g id="Guide">
</g>
<g id="Layer_6">
</g>
</svg>
