<?xml version="1.0" encoding="utf-8"?>
<!-- Generator: Adobe Illustrator 21.1.0, SVG Export Plug-In . SVG Version: 6.00 Build 0)  -->
<svg version="1.1" xmlns="http://www.w3.org/2000/svg" xmlns:xlink="http://www.w3.org/1999/xlink" x="0px" y="0px"
	 viewBox="0 0 24 64" style="enable-background:new 0 0 24 64;" xml:space="preserve">
<style type="text/css">
	.st0{fill:#FFFFFF;}
	.st1{fill:#E6E6E7;}
	.st2{fill:#CDCCCD;}
	.st3{fill:#3FA470;}
</style>
<g id="Layer_1">
	<g>
		<g>
			<polygon class="st0" points="0.5,31.5 0.5,4.3 4.2,0.5 23.5,0.5 23.5,31.5 			"/>
			<path class="st1" d="M23,1v30H1V4.5L4.4,1H23 M24,0H3.9L0,4.1V32h24V0L24,0z"/>
		</g>
		<polygon class="st1" points="4.4,1 4.4,4.5 1,4.5 		"/>
	</g>
	<polygon class="st1" points="0.5,63.5 0.5,36.3 4.2,32.5 23.5,32.5 23.5,63.5 	"/>
	<path class="st2" d="M23,33v30H1V36.5L4.4,33H23 M24,32H3.9L0,36.1V64h24V32L24,32z"/>
	<polygon class="st2" points="4.4,33 4.4,36.5 1,36.5 	"/>
</g>
<g id="Layer_4">
	<g>
		<g>
			<path class="st3" d="M10.5,15.7l-3.8-5.2h2.9l2.3,3.4l2.4-3.4h2.8l-3.8,5.1l4.2,5.9h-2.9l-2.8-4.1l-2.7,4.1H6.4L10.5,15.7z"/>
		</g>
	</g>
	<g>
		<g>
			<path class="st3" d="M10.5,47.7l-3.8-5.2h2.9l2.3,3.4l2.4-3.4h2.8l-3.8,5.1l4.2,5.9h-2.9l-2.8-4.1l-2.7,4.1H6.4L10.5,47.7z"/>
		</g>
	</g>
</g>
</svg>
