<?xml version="1.0" encoding="utf-8"?>
<!-- Generator: Adobe Illustrator 21.1.0, SVG Export Plug-In . SVG Version: 6.00 Build 0)  -->
<svg version="1.1" id="Layer_1" xmlns="http://www.w3.org/2000/svg" xmlns:xlink="http://www.w3.org/1999/xlink" x="0px" y="0px"
	 viewBox="0 0 32 64" style="enable-background:new 0 0 32 64;" xml:space="preserve">
<style type="text/css">
	.st0{fill:#39B54A;}
	.st1{fill:#FFFFFF;}
	.st2{fill:#F15A24;}
</style>
<circle class="st0" cx="16" cy="16" r="16"/>
<g>
	<path class="st1" d="M10.1,6.6h3.7v6.5c0.8-1.1,1.9-2.1,3.8-2.1c2.8,0,4.4,1.8,4.4,4.8v8.4h-3.7V17c0-1.7-0.8-2.6-2.2-2.6
		s-2.3,0.9-2.3,2.6v7.2h-3.7V6.6z"/>
</g>
<circle class="st2" cx="16" cy="48" r="16"/>
<g>
	<path class="st1" d="M10.1,38.6h3.7v6.5c0.8-1.1,1.9-2.1,3.8-2.1c2.8,0,4.4,1.8,4.4,4.8v8.4h-3.7V49c0-1.7-0.8-2.6-2.2-2.6
		s-2.3,0.9-2.3,2.6v7.2h-3.7V38.6z"/>
</g>
</svg>
