<?xml version="1.0" encoding="utf-8"?>
<!-- Generator: Adobe Illustrator 21.1.0, SVG Export Plug-In . SVG Version: 6.00 Build 0)  -->
<svg version="1.1" id="Layer_1" xmlns="http://www.w3.org/2000/svg" xmlns:xlink="http://www.w3.org/1999/xlink" x="0px" y="0px"
	 viewBox="0 0 32 64" style="enable-background:new 0 0 32 64;" xml:space="preserve">
<style type="text/css">
	.st0{fill:#F15A24;}
	.st1{fill:#FFFFFF;}
	.st2{fill:#39B54A;}
</style>
<circle class="st0" cx="16" cy="48" r="16"/>
<g>
	<g>
		<path class="st1" d="M5.8,41.8c2.9,2.4,2,9.7,1.7,13.1c0,0.6,1,0.8,1.1,0.2c0.3-1.9,0.7-3.7,1.2-5.5c0.4-1.3,0.7-3.3,1.6-4.3
			c0.7-0.8,2-1.8,3.1-0.3c0.4,0.6,0,2.4-0.1,3c-0.1,0.6,0.7,1,1.1,0.5c0.3-0.4,0.6-1.7,1-2c1.7-1.3,2.3,0.1,2.3,1.9
			c0,0.7,1,0.8,1.1,0.2c0.3-1.2,1.6-2.8,2.4-1.5c0.3,0.5,0.2,2.4,0.2,3.1c0,1,0,2.1-0.1,3.1c0,0.7,1,0.8,1.1,0.2
			c0.5-2.7,2-10.2,4-3.9c0.2,0.7,1.4,0.4,1.1-0.3c-0.5-1.5-1.4-5.1-3.6-3.7c-1.8,1.2-2.3,5.7-2.6,7.6c0.4,0.1,0.8,0.1,1.1,0.2
			c0.1-1.8,0.9-6.8-0.8-8.2c-1.9-1.6-3.7,1.7-4,3.2c0.4,0.1,0.8,0.1,1.1,0.2c0.1-1.7,0.5-4.5-1.9-4.7c-2.3-0.2-2.6,2.9-3.6,4.3
			c0.4,0.2,0.7,0.3,1.1,0.5c0.4-2.5-0.3-7.7-4-5.1c-2.9,2-3.5,8.5-4,11.7c0.4,0.1,0.8,0.1,1.1,0.2C9,51.2,9.9,43.6,6.6,40.9
			C6.1,40.5,5.2,41.3,5.8,41.8L5.8,41.8z"/>
	</g>
</g>
<circle class="st2" cx="16" cy="16" r="16"/>
<g>
	<g>
		<path class="st1" d="M5.8,9.8c2.9,2.4,2,9.7,1.7,13.1c0,0.6,1,0.8,1.1,0.2c0.3-1.9,0.7-3.7,1.2-5.5c0.4-1.3,0.7-3.3,1.6-4.3
			c0.7-0.8,2-1.8,3.1-0.3c0.4,0.6,0,2.4-0.1,3c-0.1,0.6,0.7,1,1.1,0.5c0.3-0.4,0.6-1.7,1-2c1.7-1.3,2.3,0.1,2.3,1.9
			c0,0.7,1,0.8,1.1,0.2c0.3-1.2,1.6-2.8,2.4-1.5c0.3,0.5,0.2,2.4,0.2,3.1c0,1,0,2.1-0.1,3.1c0,0.7,1,0.8,1.1,0.2
			c0.5-2.7,2-10.2,4-3.9c0.2,0.7,1.4,0.4,1.1-0.3c-0.5-1.5-1.4-5.1-3.6-3.7c-1.8,1.2-2.3,5.7-2.6,7.6c0.4,0.1,0.8,0.1,1.1,0.2
			c0.1-1.8,0.9-6.8-0.8-8.2c-1.9-1.6-3.7,1.7-4,3.2c0.4,0.1,0.8,0.1,1.1,0.2c0.1-1.7,0.5-4.5-1.9-4.7c-2.3-0.2-2.6,2.9-3.6,4.3
			c0.4,0.2,0.7,0.3,1.1,0.5c0.4-2.5-0.3-7.7-4-5.1c-2.9,2-3.5,8.5-4,11.7c0.4,0.1,0.8,0.1,1.1,0.2C9,19.2,9.9,11.6,6.6,8.9
			C6.1,8.5,5.2,9.3,5.8,9.8L5.8,9.8z"/>
	</g>
</g>
</svg>
