<?xml version="1.0" encoding="utf-8"?>
<!-- Generator: Adobe Illustrator 21.1.0, SVG Export Plug-In . SVG Version: 6.00 Build 0)  -->
<svg version="1.1" id="Layer_1" xmlns="http://www.w3.org/2000/svg" xmlns:xlink="http://www.w3.org/1999/xlink" x="0px" y="0px"
	 viewBox="0 0 24 48" style="enable-background:new 0 0 24 48;" xml:space="preserve">
<style type="text/css">
	.st0{fill:#CCCCCC;}
	.st1{fill:#39B54A;}
	.st2{fill:#FFFFFF;}
</style>
<g>
	<circle class="st0" cx="12" cy="12" r="12"/>
</g>
<g>
	<path d="M13.5,8.9l-2.1,7.4c-0.1,0.5-0.2,0.8-0.2,0.9c0,0.1,0,0.2,0.1,0.3c0.1,0.1,0.1,0.1,0.2,0.1c0.1,0,0.2-0.1,0.4-0.2
		c0.4-0.3,0.8-0.8,1.2-1.3l0.4,0.2c-0.5,0.7-1,1.3-1.7,1.8c-0.5,0.4-0.9,0.6-1.4,0.6c-0.3,0-0.5-0.1-0.7-0.3
		c-0.2-0.2-0.3-0.4-0.3-0.6c0-0.3,0.1-0.7,0.3-1.3l1.4-4.7c0.2-0.8,0.3-1.3,0.3-1.5c0-0.2-0.1-0.3-0.2-0.4S11,9.8,10.8,9.8
		c-0.2,0-0.5,0-1,0.1V9.5L13.5,8.9z M13.3,4.7c0.3,0,0.5,0.1,0.7,0.3c0.2,0.2,0.3,0.5,0.3,0.7c0,0.3-0.1,0.5-0.3,0.7
		c-0.2,0.2-0.5,0.3-0.7,0.3s-0.5-0.1-0.7-0.3c-0.2-0.2-0.3-0.5-0.3-0.7c0-0.3,0.1-0.5,0.3-0.7C12.8,4.8,13,4.7,13.3,4.7z"/>
</g>
<circle class="st1" cx="12" cy="36" r="12"/>
<g>
	<path class="st2" d="M13.5,32.9l-2.1,7.4c-0.1,0.5-0.2,0.8-0.2,0.9c0,0.1,0,0.2,0.1,0.3c0.1,0.1,0.1,0.1,0.2,0.1
		c0.1,0,0.2-0.1,0.4-0.2c0.4-0.3,0.8-0.8,1.2-1.3l0.4,0.2c-0.5,0.7-1,1.3-1.7,1.8c-0.5,0.4-0.9,0.6-1.4,0.6c-0.3,0-0.5-0.1-0.7-0.3
		c-0.2-0.2-0.3-0.4-0.3-0.6c0-0.3,0.1-0.7,0.3-1.3l1.4-4.7c0.2-0.8,0.3-1.3,0.3-1.5c0-0.2-0.1-0.3-0.2-0.4s-0.3-0.1-0.4-0.1
		c-0.2,0-0.5,0-1,0.1v-0.4L13.5,32.9z M13.3,28.7c0.3,0,0.5,0.1,0.7,0.3c0.2,0.2,0.3,0.5,0.3,0.7c0,0.3-0.1,0.5-0.3,0.7
		s-0.5,0.3-0.7,0.3s-0.5-0.1-0.7-0.3c-0.2-0.2-0.3-0.5-0.3-0.7c0-0.3,0.1-0.5,0.3-0.7C12.8,28.8,13,28.7,13.3,28.7z"/>
</g>
</svg>
