<?xml version="1.0" encoding="utf-8"?>
<!-- Generator: Adobe Illustrator 21.1.0, SVG Export Plug-In . SVG Version: 6.00 Build 0)  -->
<svg version="1.1" id="Layer_1" xmlns="http://www.w3.org/2000/svg" xmlns:xlink="http://www.w3.org/1999/xlink" x="0px" y="0px"
	 viewBox="0 0 32 64" style="enable-background:new 0 0 32 64;" xml:space="preserve">
<style type="text/css">
	.st0{fill:none;stroke:#39B54A;stroke-width:1.2766;stroke-miterlimit:10;}
	.st1{fill:#39B54A;}
	.st2{fill:#F7931E;}
	.st3{fill:none;stroke:#C1272D;stroke-width:1.2766;stroke-miterlimit:10;}
	.st4{fill:#C1272D;}
</style>
<g>
	<line class="st0" x1="28.2" y1="28.2" x2="3.8" y2="3.8"/>
	<line class="st0" x1="28.2" y1="3.8" x2="3.8" y2="28.2"/>
	<ellipse transform="matrix(0.7071 -0.7071 0.7071 0.7071 -6.6274 16)" class="st1" cx="16" cy="16" rx="11.8" ry="11.8"/>
	<ellipse transform="matrix(0.7071 -0.7071 0.7071 0.7071 6.3684 21.383)" class="st2" cx="29" cy="3" rx="3" ry="3"/>
	<ellipse transform="matrix(0.7071 -0.7071 0.7071 0.7071 -6.6909 15.9737)" class="st2" cx="15.9" cy="16.1" rx="3" ry="3"/>
	<ellipse transform="matrix(0.7071 -0.7071 0.7071 0.7071 -12.0104 28.9958)" class="st2" cx="29" cy="29" rx="3" ry="3"/>
	<ellipse transform="matrix(0.7071 -0.7071 0.7071 0.7071 -19.6232 10.617)" class="st2" cx="3" cy="29" rx="3" ry="3"/>
	<ellipse transform="matrix(0.7071 -0.7071 0.7071 0.7071 -1.2444 3.0042)" class="st2" cx="3" cy="3" rx="3" ry="3"/>
</g>
<line class="st3" x1="28.2" y1="60.2" x2="3.8" y2="35.8"/>
<line class="st3" x1="28.2" y1="35.8" x2="3.8" y2="60.2"/>
<ellipse transform="matrix(0.7071 -0.7071 0.7071 0.7071 -29.2548 25.3726)" class="st4" cx="16" cy="48" rx="11.8" ry="11.8"/>
<ellipse transform="matrix(0.7071 -0.7071 0.7071 0.7071 -16.2591 30.7556)" class="st2" cx="29" cy="35" rx="3" ry="3"/>
<ellipse transform="matrix(0.7071 -0.7071 0.7071 0.7071 -29.3184 25.3463)" class="st2" cx="15.9" cy="48.1" rx="3" ry="3"/>
<ellipse transform="matrix(0.7071 -0.7071 0.7071 0.7071 -34.6379 38.3684)" class="st2" cx="29" cy="61" rx="3" ry="3"/>
<ellipse transform="matrix(0.7071 -0.7071 0.7071 0.7071 -42.2506 19.9896)" class="st2" cx="3" cy="61" rx="3" ry="3"/>
<ellipse transform="matrix(0.7071 -0.7071 0.7071 0.7071 -23.8718 12.3768)" class="st2" cx="3" cy="35" rx="3" ry="3"/>
</svg>
