<?xml version="1.0" encoding="utf-8"?>
<!-- Generator: Adobe Illustrator 21.1.0, SVG Export Plug-In . SVG Version: 6.00 Build 0)  -->
<svg version="1.1" id="Layer_1" xmlns="http://www.w3.org/2000/svg" xmlns:xlink="http://www.w3.org/1999/xlink" x="0px" y="0px"
	 viewBox="0 0 32 64" style="enable-background:new 0 0 32 64;" xml:space="preserve">
<style type="text/css">
	.st0{fill:none;stroke:#39B54A;stroke-width:1.2766;stroke-miterlimit:10;}
	.st1{fill:#39B54A;}
	.st2{fill:#F7931E;}
	.st3{fill:none;stroke:#FFFFFF;stroke-width:1.5833;stroke-linecap:round;stroke-linejoin:round;stroke-miterlimit:10;}
	.st4{fill:#F7931E;stroke:#FFFFFF;stroke-width:1.1722;stroke-miterlimit:10;}
	.st5{fill:none;stroke:#C1272D;stroke-width:1.2766;stroke-miterlimit:10;}
	.st6{fill:#C1272D;}
</style>
<g>
	<line class="st0" x1="28.2" y1="28.2" x2="3.8" y2="3.8"/>
	<line class="st0" x1="28.2" y1="3.8" x2="3.8" y2="28.2"/>
	<ellipse transform="matrix(0.7071 -0.7071 0.7071 0.7071 -6.6274 16)" class="st1" cx="16" cy="16" rx="11.8" ry="11.8"/>
	<ellipse transform="matrix(0.7071 -0.7071 0.7071 0.7071 6.3684 21.383)" class="st2" cx="29" cy="3" rx="3" ry="3"/>
	<ellipse transform="matrix(0.7071 -0.7071 0.7071 0.7071 -12.0104 28.9958)" class="st2" cx="29" cy="29" rx="3" ry="3"/>
	<ellipse transform="matrix(0.7071 -0.7071 0.7071 0.7071 -19.6232 10.617)" class="st2" cx="3" cy="29" rx="3" ry="3"/>
	<ellipse transform="matrix(0.7071 -0.7071 0.7071 0.7071 -1.2444 3.0042)" class="st2" cx="3" cy="3" rx="3" ry="3"/>
	<g>
		<path class="st3" d="M14.5,21.9l-3.5-3.5l9.5-9.5c0.3-0.3,0.7-0.3,0.9,0l2.6,2.6c0.3,0.3,0.3,0.7,0,0.9L14.5,21.9z"/>
		<polygon class="st3" points="11.1,18.4 9.5,23.3 14.5,21.9 		"/>
		<polygon class="st4" points="10.2,21.3 9.6,23.3 11.6,22.7 		"/>
	</g>
</g>
<line class="st5" x1="28.2" y1="60.2" x2="3.8" y2="35.8"/>
<line class="st5" x1="28.2" y1="35.8" x2="3.8" y2="60.2"/>
<ellipse transform="matrix(0.7071 -0.7071 0.7071 0.7071 -29.2548 25.3726)" class="st6" cx="16" cy="48" rx="11.8" ry="11.8"/>
<ellipse transform="matrix(0.7071 -0.7071 0.7071 0.7071 -16.2591 30.7556)" class="st2" cx="29" cy="35" rx="3" ry="3"/>
<ellipse transform="matrix(0.7071 -0.7071 0.7071 0.7071 -34.6379 38.3684)" class="st2" cx="29" cy="61" rx="3" ry="3"/>
<ellipse transform="matrix(0.7071 -0.7071 0.7071 0.7071 -42.2506 19.9896)" class="st2" cx="3" cy="61" rx="3" ry="3"/>
<ellipse transform="matrix(0.7071 -0.7071 0.7071 0.7071 -23.8718 12.3768)" class="st2" cx="3" cy="35" rx="3" ry="3"/>
<g>
	<path class="st3" d="M14.5,53.9l-3.5-3.5l9.5-9.5c0.3-0.3,0.7-0.3,0.9,0l2.6,2.6c0.3,0.3,0.3,0.7,0,0.9L14.5,53.9z"/>
	<polygon class="st3" points="11.1,50.4 9.5,55.3 14.5,53.9 	"/>
	<polygon class="st4" points="10.2,53.3 9.6,55.3 11.6,54.7 	"/>
</g>
</svg>
