<?xml version="1.0" encoding="utf-8"?>
<!-- Generator: Adobe Illustrator 21.1.0, SVG Export Plug-In . SVG Version: 6.00 Build 0)  -->
<svg version="1.1" xmlns="http://www.w3.org/2000/svg" xmlns:xlink="http://www.w3.org/1999/xlink" x="0px" y="0px"
	 viewBox="0 0 24 64" style="enable-background:new 0 0 24 64;" xml:space="preserve">
<style type="text/css">
	.st0{fill:#FFFFFF;}
	.st1{fill:#E6E6E7;}
	.st2{fill:#CDCCCD;}
	.st3{fill:#47A64E;}
</style>
<g id="Layer_1">
	<g>
		<g>
			<polygon class="st0" points="0.5,31.5 0.5,4.3 4.2,0.5 23.5,0.5 23.5,31.5 			"/>
			<path class="st1" d="M23,1v30H1V4.5L4.4,1H23 M24,0H3.9L0,4.1V32h24V0L24,0z"/>
		</g>
		<polygon class="st1" points="4.4,1 4.4,4.5 1,4.5 		"/>
	</g>
	<polygon class="st1" points="0.5,63.5 0.5,36.3 4.2,32.5 23.5,32.5 23.5,63.5 	"/>
	<path class="st2" d="M23,33v30H1V36.5L4.4,33H23 M24,32H3.9L0,36.1V64h24V32L24,32z"/>
	<polygon class="st2" points="4.4,33 4.4,36.5 1,36.5 	"/>
</g>
<g id="b">
	<path class="st3" d="M19.8,22.4l-5.5-5.5c0.6-0.9,1-2,1-3.1c0-3.1-2.5-5.6-5.6-5.6s-5.6,2.5-5.6,5.6s2.5,5.6,5.6,5.6
		c1.2,0,2.2-0.4,3.1-1l5.5,5.5L19.8,22.4z M5.2,13.7c0-2.5,2-4.5,4.5-4.5s4.5,2,4.5,4.5s-2,4.5-4.5,4.5S5.2,16.2,5.2,13.7z"/>
	<path class="st3" d="M19.8,54.4l-5.5-5.5c0.6-0.9,1-2,1-3.1c0-3.1-2.5-5.6-5.6-5.6s-5.6,2.5-5.6,5.6s2.5,5.6,5.6,5.6
		c1.2,0,2.2-0.4,3.1-1l5.5,5.5L19.8,54.4z M5.2,45.7c0-2.5,2-4.5,4.5-4.5s4.5,2,4.5,4.5s-2,4.5-4.5,4.5S5.2,48.2,5.2,45.7z"/>
</g>
</svg>
