<?xml version="1.0" encoding="utf-8"?>
<!-- Generator: Adobe Illustrator 21.1.0, SVG Export Plug-In . SVG Version: 6.00 Build 0)  -->
<svg version="1.1" xmlns="http://www.w3.org/2000/svg" xmlns:xlink="http://www.w3.org/1999/xlink" x="0px" y="0px"
	 viewBox="0 0 24 64" style="enable-background:new 0 0 24 64;" xml:space="preserve">
<style type="text/css">
	.st0{fill:#FFFFFF;}
	.st1{fill:#E6E6E7;}
	.st2{fill:#CDCCCD;}
	.st3{fill:#C02E2E;}
</style>
<g id="Layer_1">
	<g>
		<g>
			<polygon class="st0" points="0.5,31.5 0.5,4.3 4.2,0.5 23.5,0.5 23.5,31.5 			"/>
			<path class="st1" d="M23,1v30H1V4.5L4.4,1H23 M24,0H3.9L0,4.1V32h24V0L24,0z"/>
		</g>
		<polygon class="st1" points="4.4,1 4.4,4.5 1,4.5 		"/>
	</g>
	<polygon class="st1" points="0.5,63.5 0.5,36.3 4.2,32.5 23.5,32.5 23.5,63.5 	"/>
	<path class="st2" d="M23,33v30H1V36.5L4.4,33H23 M24,32H3.9L0,36.1V64h24V32L24,32z"/>
	<polygon class="st2" points="4.4,33 4.4,36.5 1,36.5 	"/>
	<path class="st3" d="M20.3,18c-0.4-0.7-1.5-0.9-3.1-0.9c-0.5,0-1.1,0.1-1.8,0.1c-0.5-0.3-0.8-0.5-1.2-0.8c-0.8-0.8-1.6-2-2.2-3.5
		v-0.1c0.5-1.8,0.9-3.9,0-4.9c-0.3-0.1-0.5-0.3-0.8-0.3H11c-0.5,0-1,0.5-1.1,1.1c-0.5,1.9-0.3,2.8,0.3,4.5c-0.4,1.2-0.8,2.6-1.5,3.9
		c-0.5,0.9-1,1.8-1.4,2.4c-0.5,0.3-0.9,0.5-1.2,0.7c-1.6,0.9-2.4,2.2-2.6,2.8c0,0.3,0,0.4,0.1,0.7v0.1l0.7,0.4
		c0.1,0.1,0.3,0.1,0.5,0.1C6,24.4,7.3,23,9,20.2c0.1-0.1,0.1-0.1,0.3-0.1c1.3-0.5,3.1-0.8,5.4-1.1c1.4,0.7,3,1,4.1,1
		c0.5,0,1-0.1,1.2-0.3c0.3-0.3,0.4-0.7,0.5-0.8C20.5,18.6,20.5,18.3,20.3,18z M4.5,23.2c0.1-0.4,0.8-1.4,1.8-2.2
		c0.1-0.1,0.4-0.3,0.7-0.4C6.1,22.2,5.3,23,4.5,23.2z M11,8.3c0.1,0,0.1-0.1,0.1-0.1l0.1,0.1v0.1c0.1,0.1,0.1,0.7,0,1.4V10
		c0,0.4-0.1,0.7-0.3,1.2C10.7,10,10.7,9.1,11,8.3z M9.2,19.1H9c0.3-0.5,0.5-1,0.8-1.5c0.5-1.2,1.1-2.3,1.3-3.2
		c0.5,1.2,1.4,2.3,2,3.1c0.1,0.1,0.3,0.3,0.5,0.4C12.6,18,11,18.4,9.2,19.1z M19.5,18.8h-0.4c-0.7,0-1.6-0.3-2.6-0.7V18h0.3
		c1.9,0,2.4,0.4,2.6,0.5c0,0.1,0.1,0.1,0.1,0.1V18.8z"/>
	<path class="st3" d="M20.3,50c-0.4-0.7-1.5-0.9-3.1-0.9c-0.5,0-1.1,0.1-1.8,0.1c-0.5-0.3-0.8-0.5-1.2-0.8c-0.8-0.8-1.6-2-2.2-3.5
		v-0.1c0.5-1.8,0.9-3.9,0-4.9c-0.3-0.1-0.5-0.3-0.8-0.3H11c-0.5,0-1,0.5-1.1,1.1c-0.5,1.9-0.3,2.8,0.3,4.5c-0.4,1.2-0.8,2.6-1.5,3.9
		c-0.5,0.9-1,1.8-1.4,2.4c-0.5,0.3-0.9,0.5-1.2,0.7c-1.6,0.9-2.4,2.2-2.6,2.8c0,0.3,0,0.4,0.1,0.7v0.1l0.7,0.4
		c0.1,0.1,0.3,0.1,0.5,0.1C6,56.4,7.3,55,9,52.2c0.1-0.1,0.1-0.1,0.3-0.1c1.3-0.5,3.1-0.8,5.4-1.1c1.4,0.7,3,1,4.1,1
		c0.5,0,1-0.1,1.2-0.3c0.3-0.3,0.4-0.7,0.5-0.8C20.5,50.6,20.5,50.3,20.3,50z M4.5,55.2c0.1-0.4,0.8-1.4,1.8-2.2
		c0.1-0.1,0.4-0.3,0.7-0.4C6.1,54.2,5.3,55,4.5,55.2z M11,40.3c0.1,0,0.1-0.1,0.1-0.1l0.1,0.1v0.1c0.1,0.1,0.1,0.7,0,1.4V42
		c0,0.4-0.1,0.7-0.3,1.2C10.7,42,10.7,41.1,11,40.3z M9.2,51.1H9c0.3-0.5,0.5-1,0.8-1.5c0.5-1.2,1.1-2.3,1.3-3.2
		c0.5,1.2,1.4,2.3,2,3.1c0.1,0.1,0.3,0.3,0.5,0.4C12.6,50,11,50.4,9.2,51.1z M19.5,50.8h-0.4c-0.7,0-1.6-0.3-2.6-0.7V50h0.3
		c1.9,0,2.4,0.4,2.6,0.5c0,0.1,0.1,0.1,0.1,0.1V50.8z"/>
</g>
<g id="Layer_5">
</g>
</svg>
