<?xml version="1.0" encoding="utf-8"?>
<!-- Generator: Adobe Illustrator 21.1.0, SVG Export Plug-In . SVG Version: 6.00 Build 0)  -->
<svg version="1.1" id="Layer_1" xmlns="http://www.w3.org/2000/svg" xmlns:xlink="http://www.w3.org/1999/xlink" x="0px" y="0px"
	 viewBox="0 0 32 64" style="enable-background:new 0 0 32 64;" xml:space="preserve">
<style type="text/css">
	.st0{fill:#2E2F31;}
	.st1{fill:#3F92C9;}
	.st2{fill:#C33730;}
</style>
<g>
	<path class="st0" d="M30,21.8V11.1c0-1.3-1.1-2.4-2.4-2.4h-2.9V3.1c0-0.9-0.7-1.6-1.6-1.6H8.9c-0.9,0-1.6,0.7-1.6,1.6v5.6H4.4
		C3.1,8.7,2,9.8,2,11.1v10.7c0,1.3,1.1,2.4,2.4,2.4h2.9v4.7c0,0.9,0.7,1.6,1.6,1.6h14.2c0.9,0,1.6-0.7,1.6-1.6v-4.7h2.9
		C28.9,24.2,30,23.1,30,21.8L30,21.8z M8.5,3.1c0-0.2,0.2-0.4,0.4-0.4h14.2c0.2,0,0.4,0.2,0.4,0.4v5.6H8.5V3.1z M23.5,28.9
		c0,0.2-0.2,0.4-0.4,0.4H8.9c-0.2,0-0.4-0.2-0.4-0.4V17h14.9L23.5,28.9L23.5,28.9z M28.8,21.8c0,0.7-0.6,1.3-1.3,1.3h-2.9v-6.6
		c0-0.3-0.3-0.6-0.6-0.6H7.9c-0.3,0-0.6,0.3-0.6,0.6v6.6H4.4c-0.7,0-1.3-0.6-1.3-1.3V11.1c0-0.7,0.6-1.3,1.3-1.3h23.2
		c0.7,0,1.3,0.6,1.3,1.3V21.8z M28.8,21.8"/>
	<path class="st0" d="M6.1,12.2c-0.2,0-0.3,0.1-0.4,0.2c-0.1,0.1-0.2,0.3-0.2,0.4c0,0.2,0.1,0.3,0.2,0.4c0.1,0.1,0.3,0.2,0.4,0.2
		c0.2,0,0.3-0.1,0.4-0.2c0.1-0.1,0.2-0.3,0.2-0.4c0-0.2-0.1-0.3-0.2-0.4C6.5,12.3,6.3,12.2,6.1,12.2L6.1,12.2z M6.1,12.2"/>
	<path class="st1" d="M11.9,23.8h8.3c0.3,0,0.6-0.3,0.6-0.6c0-0.3-0.3-0.6-0.6-0.6h-8.3c-0.3,0-0.6,0.3-0.6,0.6
		C11.3,23.5,11.5,23.8,11.9,23.8L11.9,23.8z M11.9,23.8"/>
	<path class="st1" d="M11.9,27.1h8.3c0.3,0,0.6-0.3,0.6-0.6c0-0.3-0.3-0.6-0.6-0.6h-8.3c-0.3,0-0.6,0.3-0.6,0.6
		C11.3,26.8,11.5,27.1,11.9,27.1L11.9,27.1z M11.9,27.1"/>
	<path class="st1" d="M11.9,20.4h8.3c0.3,0,0.6-0.3,0.6-0.6c0-0.3-0.3-0.6-0.6-0.6h-8.3c-0.3,0-0.6,0.3-0.6,0.6
		C11.3,20.2,11.5,20.4,11.9,20.4L11.9,20.4z M11.9,20.4"/>
</g>
<path class="st0" d="M30,53.8V43.1c0-1.3-1.1-2.4-2.4-2.4h-2.9v-5.6c0-0.9-0.7-1.6-1.6-1.6H8.9c-0.9,0-1.6,0.7-1.6,1.6v5.6H4.4
	c-1.3,0-2.4,1.1-2.4,2.4v10.7c0,1.3,1.1,2.4,2.4,2.4h2.9v4.7c0,0.9,0.7,1.6,1.6,1.6h14.2c0.9,0,1.6-0.7,1.6-1.6v-4.7h2.9
	C28.9,56.2,30,55.1,30,53.8L30,53.8z M8.5,35.1c0-0.2,0.2-0.4,0.4-0.4h14.2c0.2,0,0.4,0.2,0.4,0.4v5.6H8.5V35.1z M23.5,60.9
	c0,0.2-0.2,0.4-0.4,0.4H8.9c-0.2,0-0.4-0.2-0.4-0.4V49h14.9L23.5,60.9L23.5,60.9z M28.8,53.8c0,0.7-0.6,1.3-1.3,1.3h-2.9v-6.6
	c0-0.3-0.3-0.6-0.6-0.6H7.9c-0.3,0-0.6,0.3-0.6,0.6v6.6H4.4c-0.7,0-1.3-0.6-1.3-1.3V43.1c0-0.7,0.6-1.3,1.3-1.3h23.2
	c0.7,0,1.3,0.6,1.3,1.3V53.8z M28.8,53.8"/>
<path class="st0" d="M6.1,44.2c-0.2,0-0.3,0.1-0.4,0.2c-0.1,0.1-0.2,0.3-0.2,0.4c0,0.2,0.1,0.3,0.2,0.4c0.1,0.1,0.3,0.2,0.4,0.2
	c0.2,0,0.3-0.1,0.4-0.2c0.1-0.1,0.2-0.3,0.2-0.4c0-0.2-0.1-0.3-0.2-0.4C6.5,44.3,6.3,44.2,6.1,44.2L6.1,44.2z M6.1,44.2"/>
<path class="st2" d="M11.9,55.8h8.3c0.3,0,0.6-0.3,0.6-0.6c0-0.3-0.3-0.6-0.6-0.6h-8.3c-0.3,0-0.6,0.3-0.6,0.6
	C11.3,55.5,11.5,55.8,11.9,55.8L11.9,55.8z M11.9,55.8"/>
<path class="st2" d="M11.9,59.1h8.3c0.3,0,0.6-0.3,0.6-0.6c0-0.3-0.3-0.6-0.6-0.6h-8.3c-0.3,0-0.6,0.3-0.6,0.6
	C11.3,58.8,11.5,59.1,11.9,59.1L11.9,59.1z M11.9,59.1"/>
<path class="st2" d="M11.9,52.4h8.3c0.3,0,0.6-0.3,0.6-0.6c0-0.3-0.3-0.6-0.6-0.6h-8.3c-0.3,0-0.6,0.3-0.6,0.6
	C11.3,52.2,11.5,52.4,11.9,52.4L11.9,52.4z M11.9,52.4"/>
</svg>
