<?xml version="1.0" encoding="utf-8"?>
<!-- Generator: Adobe Illustrator 21.1.0, SVG Export Plug-In . SVG Version: 6.00 Build 0)  -->
<svg version="1.1" xmlns="http://www.w3.org/2000/svg" xmlns:xlink="http://www.w3.org/1999/xlink" x="0px" y="0px"
	 viewBox="0 0 528 48" style="enable-background:new 0 0 528 48;" xml:space="preserve">
<style type="text/css">
	.st0{fill:none;stroke:#ED1C24;stroke-linecap:round;stroke-linejoin:round;stroke-miterlimit:10;}
	.st1{fill:none;stroke:#FFFFFF;stroke-width:0.9524;stroke-linecap:round;stroke-linejoin:round;stroke-miterlimit:10;}
	.st2{fill:none;stroke:#FFFFFF;stroke-width:0.9118;stroke-linecap:round;stroke-linejoin:round;stroke-miterlimit:10;}
	.st3{fill:none;stroke:#FFFFFF;stroke-width:0.72;stroke-linecap:round;stroke-linejoin:round;stroke-miterlimit:10;}
	.st4{fill:#FCEE21;stroke:#FFFFFF;stroke-width:0.72;stroke-linecap:round;stroke-linejoin:round;stroke-miterlimit:10;}
	.st5{fill:none;stroke:#FFFFFF;stroke-width:0.998;stroke-linecap:round;stroke-linejoin:round;stroke-miterlimit:10;}
	.st6{fill:#FFFFFF;}
	.st7{fill:none;stroke:#FFFFFF;stroke-linecap:round;stroke-linejoin:round;stroke-miterlimit:10;}
	.st8{fill:none;stroke:#39B54A;stroke-linecap:round;stroke-linejoin:round;stroke-miterlimit:10;}
	.st9{fill:none;stroke:#FCEE21;stroke-miterlimit:10;}
	.st10{fill:#FCEE21;}
	.st11{fill:none;stroke:#FFFFFF;stroke-miterlimit:10;}
	.st12{fill:none;stroke:#FCEE21;stroke-width:2;stroke-linecap:round;stroke-linejoin:round;stroke-miterlimit:10;}
	.st13{fill:none;stroke:#FFFFFF;stroke-width:1.0301;stroke-linecap:round;stroke-linejoin:round;}
	.st14{fill:none;stroke:#FFFFFF;stroke-width:1.0301;stroke-linecap:round;stroke-linejoin:round;stroke-miterlimit:10;}
	.st15{fill:#39B54A;stroke:#FFFFFF;stroke-width:0.7745;stroke-linecap:round;stroke-linejoin:round;stroke-miterlimit:10;}
	.st16{fill:#3B72AF;stroke:#FFFFFF;stroke-linecap:round;stroke-linejoin:round;stroke-miterlimit:10;}
</style>
<g id="Layer_2">
</g>
<g id="Layer_1">
	<circle class="st0" cx="-1011" cy="39.6" r="29.5"/>
	<g>
		<line class="st1" x1="72" y1="19" x2="72" y2="22.6"/>
		<line class="st1" x1="78.3" y1="22.6" x2="78.3" y2="26.3"/>
		<line class="st1" x1="65.8" y1="22.6" x2="65.8" y2="26.3"/>
		<line class="st1" x1="78.3" y1="22.6" x2="72" y2="22.6"/>
		<line class="st1" x1="72" y1="22.6" x2="65.8" y2="22.6"/>
		<circle class="st1" cx="72" cy="14.9" r="3.3"/>
		<circle class="st1" cx="65.3" cy="30.1" r="3.3"/>
		<circle class="st1" cx="78.7" cy="30.1" r="3.3"/>
	</g>
	<g>
		<line class="st2" x1="125.8" y1="15.9" x2="112.9" y2="33"/>
		<circle class="st2" cx="115.2" cy="18.9" r="3.2"/>
		<circle class="st2" cx="124.3" cy="29.8" r="3.2"/>
	</g>
	<g>
		<circle class="st3" cx="161.5" cy="18" r="2.5"/>
		<circle class="st3" cx="161.5" cy="24.5" r="2.5"/>
		<circle class="st3" cx="161.5" cy="31" r="2.5"/>
		<circle class="st3" cx="168" cy="18" r="2.5"/>
		<circle class="st4" cx="168" cy="24.5" r="2.5"/>
		<circle class="st4" cx="168" cy="31" r="2.5"/>
		<circle class="st3" cx="174.5" cy="18" r="2.5"/>
		<circle class="st4" cx="174.5" cy="24.5" r="2.5"/>
		<circle class="st4" cx="174.5" cy="31" r="2.5"/>
	</g>
	<g>
		<path class="st5" d="M30.2,35.1H17.8c-1.1,0-2-0.9-2-2v-18c0-1.1,0.9-2,2-2h12.5c1.1,0,2,0.9,2,2v18
			C32.2,34.2,31.3,35.1,30.2,35.1z"/>
		<g>
			<line class="st5" x1="18.5" y1="19.9" x2="29.5" y2="19.9"/>
			<line class="st5" x1="18.5" y1="22.7" x2="29.5" y2="22.7"/>
			<line class="st5" x1="18.5" y1="25.6" x2="29.5" y2="25.6"/>
			<line class="st5" x1="18.5" y1="28.4" x2="29.5" y2="28.4"/>
		</g>
	</g>
	<g>
		<circle class="st6" cx="312" cy="23.9" r="5.3"/>
		<line class="st7" x1="319.8" y1="24" x2="304.2" y2="24"/>
		<g>
			<line class="st7" x1="303.9" y1="13.5" x2="303.9" y2="34.4"/>
			<line class="st7" x1="320.1" y1="13.6" x2="320.1" y2="34.5"/>
		</g>
		<g>
			<line class="st8" x1="312" y1="20.2" x2="312" y2="27.6"/>
			<line class="st8" x1="315.4" y1="23.9" x2="308.6" y2="23.9"/>
		</g>
	</g>
	<g>
		<g>
			<g>
				<line class="st9" x1="359.6" y1="23.9" x2="351.3" y2="32.2"/>
				<g>
					<polygon class="st10" points="350.9,28.2 351.7,28.3 351.6,31.9 355.2,31.8 355.3,32.6 350.8,32.7 					"/>
				</g>
			</g>
		</g>
		<g>
			<g>
				<line class="st11" x1="367.9" y1="15.6" x2="359.6" y2="23.9"/>
				<g>
					<polygon class="st6" points="364,15.2 364,15.9 367.7,15.8 367.6,19.5 368.3,19.5 368.5,15 					"/>
				</g>
			</g>
		</g>
	</g>
	<g>
		<g>
			<path class="st6" d="M418.5,19.6c-0.2-0.2-0.4-0.3-0.6-0.3h-2.1v-5.7c0-0.2-0.2-0.3-0.3-0.3h-15c-0.2,0-0.3,0.2-0.3,0.3v5.7h-2.1
				c-0.2,0-0.5,0.1-0.6,0.3c-0.1,0.1-0.2,0.3-0.2,0.6v13.8c0,0.5,0.4,0.8,0.8,0.8h19.8c0.5,0,0.8-0.4,0.8-0.8V20.1
				C418.8,19.9,418.7,19.7,418.5,19.6L418.5,19.6z M400.5,21c0.2,0,0.3-0.2,0.3-0.3v-6.7h14.4v6.7c0,0.2,0.2,0.3,0.3,0.3
				c0.2,0,0.3-0.2,0.3-0.3V20h1.7l-9.2,9.6c-0.1,0.1-0.2,0.2-0.4,0.2s-0.3-0.1-0.4-0.2l-9.2-9.6h1.7v0.7
				C400.1,20.8,400.3,21,400.5,21L400.5,21z M417.9,34.1h-19.8c-0.1,0-0.2-0.1-0.2-0.2V20.5l6.3,6.5l-5.5,5.7
				c-0.1,0.1-0.1,0.4,0,0.5c0.1,0.1,0.2,0.1,0.2,0.1c0.1,0,0.2,0,0.2-0.1l5.5-5.7l2.4,2.5c0.2,0.2,0.5,0.4,0.9,0.4s0.6-0.1,0.9-0.4
				l2.4-2.5l2.2,2.2c0.1,0.1,0.2,0.1,0.2,0.1c0.1,0,0.2,0,0.2-0.1c0.1-0.1,0.1-0.3,0-0.5l-2.2-2.3l6.3-6.5v13.4
				C418.1,34,418,34.1,417.9,34.1L417.9,34.1z M417.9,34.1"/>
			<path class="st6" d="M415.1,30.4c-0.1-0.1-0.3-0.1-0.5,0c-0.1,0.1-0.1,0.3,0,0.5l2.3,2.4c0.1,0.1,0.2,0.1,0.2,0.1
				c0.1,0,0.2,0,0.2-0.1c0.1-0.1,0.1-0.3,0-0.5L415.1,30.4z M415.1,30.4"/>
		</g>
		<polyline class="st12" points="404,20.7 406.3,23 411.8,17.5 		"/>
	</g>
	<g>
		<g>
			<g>
				<path class="st13" d="M444.3,22.7c0.4-6.2,5.6-11.2,12-11.2c6.6,0,12,5.4,12,12s-5.4,12-12,12"/>
				<g>
					<polygon class="st6" points="447.8,20.5 447.3,19.9 444.4,22.4 442.2,19.3 441.6,19.7 444.3,23.5 					"/>
				</g>
			</g>
		</g>
		<polyline class="st14" points="456.1,15.4 456.1,24.1 462.6,24.1 		"/>
	</g>
	<g>
		<path class="st7" d="M492.5,25.4L492.5,25.4c0-3.8,3.1-6.8,6.8-6.8h10.9c3.8,0,6.8,3.1,6.8,6.8v0c0,3.8-3.1,6.8-6.8,6.8h-10.9
			C495.6,32.2,492.5,29.1,492.5,25.4z"/>
		<circle class="st6" cx="499.5" cy="25.2" r="5.2"/>
		<line class="st8" x1="499.5" y1="21.2" x2="499.5" y2="29.2"/>
	</g>
	<g>
		<path class="st15" d="M223.6,36.1h-13.4c-1.2,0-2.1-1-2.1-2.1V14.6c0-1.2,1-2.1,2.1-2.1h13.4c1.2,0,2.1,1,2.1,2.1V34
			C225.7,35.2,224.8,36.1,223.6,36.1z"/>
		<g>
			<circle class="st6" cx="212.4" cy="31.3" r="2"/>
			<circle class="st6" cx="217.4" cy="26.3" r="2"/>
			<circle class="st6" cx="217.4" cy="31.3" r="2"/>
			<circle class="st6" cx="222.4" cy="21.3" r="2"/>
			<circle class="st6" cx="222.4" cy="26.3" r="2"/>
			<circle class="st6" cx="222.4" cy="31.3" r="2"/>
		</g>
	</g>
	<g>
		<g>
			<path class="st5" d="M270.2,35.1h-12.5c-1.1,0-2-0.9-2-2v-18c0-1.1,0.9-2,2-2h12.5c1.1,0,2,0.9,2,2v18
				C272.2,34.2,271.3,35.1,270.2,35.1z"/>
			<g>
				<line class="st5" x1="258.5" y1="19.9" x2="269.5" y2="19.9"/>
				<line class="st5" x1="258.5" y1="22.7" x2="269.5" y2="22.7"/>
				<line class="st5" x1="258.5" y1="25.6" x2="269.5" y2="25.6"/>
				<line class="st5" x1="258.5" y1="28.4" x2="269.5" y2="28.4"/>
			</g>
		</g>
		<g>
			<g>
				<path class="st6" d="M258,32.1c0.6,0.5,1.2,1.3,2.2,1.1c0.1,0,1.1-0.9,0.7-0.9c0.1,0,0.4,0.4,0.5,0.5c0.8,0.3,1.3-0.7,1.9-0.6
					c0.2,0,0.5,0.5,0.7,0.5c0.7,0.2,1.2-0.6,1.8,0.5c0.5,0.8,1.8,0.1,1.3-0.8c-0.3-0.5-0.6-0.9-1.2-1.1c-0.5-0.2-1.1,0-1.5-0.2
					c-0.4-0.1-0.5-0.6-1.1-0.6c-0.8,0-1.2,0.6-1.9,0.8c0.2,0.1,0.5,0.1,0.7,0.2c-0.4-0.3-0.6-0.7-1.2-0.6c-0.9,0.1-1,0.9-2,0.1
					C258.3,30.4,257.3,31.5,258,32.1L258,32.1z"/>
			</g>
		</g>
		<g>
			<polygon class="st16" points="265.5,29 265.5,32 268.4,32 278.9,21.4 276,18.5 			"/>
			
				<rect x="272.4" y="22.5" transform="matrix(0.7071 0.7071 -0.7071 0.7071 96.5561 -187.369)" class="st16" width="4" height="0.8"/>
		</g>
	</g>
</g>
</svg>
