<?xml version="1.0" encoding="utf-8"?>
<!-- Generator: Adobe Illustrator 21.1.0, SVG Export Plug-In . SVG Version: 6.00 Build 0)  -->
<svg version="1.1" xmlns="http://www.w3.org/2000/svg" xmlns:xlink="http://www.w3.org/1999/xlink" x="0px" y="0px"
	 viewBox="0 0 32 64" style="enable-background:new 0 0 32 64;" xml:space="preserve">
<style type="text/css">
	.st0{fill:#39B54A;}
	.st1{fill:#CC0000;}
	.st2{fill:#FFFFFF;}
</style>
<g id="Layer_1">
</g>
<g id="Layer_5">
</g>
<g id="Layer_7">
</g>
<g id="Layer_4">
</g>
<g id="Layer_8">
</g>
<g id="Layer_2">
</g>
<g id="isgruplari">
	<g>
		<circle class="st0" cx="16" cy="16" r="16"/>
	</g>
	<g>
		<circle class="st1" cx="16" cy="48" r="16"/>
	</g>
	<g>
		<path class="st2" d="M14.4,6c1.2,0,1.8,0,2,0c0,0.2,0,1.1,0,2.6c0,1.5,0,2.4,0,2.6L22.5,9c0,0.6,0,1.1,0,1.6l-6.1,2.2
			c0,0.1,0,0.2,0,0.4c0,0.2,0,0.4,0,0.4l3.3-1.2l2.8-1c0,0.1,0,0.4,0,0.8c0,0.4,0,0.7,0,0.7c0,0.1,0,0.1-0.1,0.1l-5.9,2.1
			c-0.1,0-0.1,0.1-0.2,0.1c0,1,0,2.5,0,4.3c0,1.8,0,3.2,0,4.3v0.1c1.5-0.2,2.9-0.8,4.1-1.8c1.3-1.1,2.2-2.4,2.6-4
			c0.2-0.7,0.3-1.5,0.3-2.2h2c0,1.6-0.4,3.2-1.2,4.6c-0.6,1.1-1.3,2.1-2.3,2.9c-0.9,0.8-1.9,1.4-3,1.8c-1.5,0.6-3,0.8-4.5,0.6
			c0-1.1,0-2.8,0-5c0-2.2,0-3.9,0-5l-0.3,0.1l-3.5,1.2c0-0.5,0-1,0-1.6l3.8-1.4c0-0.1,0-0.4,0-0.9c-0.2,0.1-0.4,0.2-0.7,0.3
			C13.3,13.9,13.1,14,13,14l-2,0.7c-0.2,0.1-0.4,0.1-0.5,0.1c0-0.8,0-1.3,0-1.6l3.8-1.3c0-0.7,0-1.7,0-3C14.4,7.7,14.4,6.7,14.4,6z"
			/>
	</g>
	<g>
		<path class="st2" d="M14.4,38c1.2,0,1.8,0,2,0c0,0.2,0,1.1,0,2.6c0,1.5,0,2.4,0,2.6l6.1-2.2c0,0.6,0,1.1,0,1.6l-6.1,2.2
			c0,0.1,0,0.2,0,0.4c0,0.2,0,0.4,0,0.4l3.3-1.2l2.8-1c0,0.1,0,0.4,0,0.8c0,0.4,0,0.7,0,0.7c0,0.1,0,0.1-0.1,0.1l-5.9,2.1
			c-0.1,0-0.1,0.1-0.2,0.1c0,1,0,2.5,0,4.3c0,1.8,0,3.2,0,4.3v0.1c1.5-0.2,2.9-0.8,4.1-1.8c1.3-1.1,2.2-2.4,2.6-4
			c0.2-0.7,0.3-1.5,0.3-2.2h2c0,1.6-0.4,3.2-1.2,4.6c-0.6,1.1-1.3,2.1-2.3,2.9c-0.9,0.8-1.9,1.4-3,1.8c-1.5,0.6-3,0.8-4.5,0.6
			c0-1.1,0-2.8,0-5c0-2.2,0-3.9,0-5l-0.3,0.1l-3.5,1.2c0-0.5,0-1,0-1.6l3.8-1.4c0-0.1,0-0.4,0-0.9c-0.2,0.1-0.4,0.2-0.7,0.3
			C13.3,45.9,13.1,46,13,46l-2,0.7c-0.2,0.1-0.4,0.1-0.5,0.1c0-0.8,0-1.3,0-1.6l3.8-1.3c0-0.7,0-1.7,0-3
			C14.4,39.7,14.4,38.7,14.4,38z"/>
	</g>
</g>
<g id="Guide">
</g>
<g id="Layer_6">
</g>
</svg>
