<?xml version="1.0" encoding="utf-8"?>
<!-- Generator: Adobe Illustrator 21.1.0, SVG Export Plug-In . SVG Version: 6.00 Build 0)  -->
<svg version="1.1" id="Layer_1" xmlns="http://www.w3.org/2000/svg" xmlns:xlink="http://www.w3.org/1999/xlink" x="0px" y="0px"
	 viewBox="0 0 32 64" style="enable-background:new 0 0 32 64;" xml:space="preserve">
<style type="text/css">
	.st0{fill:#39B54A;}
	.st1{fill:#F15A24;}
</style>
<g>
	<path class="st0" d="M16,0C7.2,0,0,7.2,0,16c0,8.8,7.2,16,16,16c8.8,0,16-7.2,16-16C32,7.2,24.8,0,16,0L16,0z M16,5.6l9.5,5.9H6.5
		L16,5.6z M25.6,21L25.6,21c0,0.9-0.8,1.7-1.7,1.7H8.1c-0.9,0-1.7-0.8-1.7-1.7v-9.1c0-0.1,0-0.2,0-0.3l9,5.6c0,0,0,0,0,0
		c0,0,0,0,0,0c0.1,0,0.1,0.1,0.2,0.1c0,0,0,0,0,0c0.1,0,0.1,0,0.2,0h0c0.1,0,0.1,0,0.2,0c0,0,0,0,0,0c0.1,0,0.1,0,0.2-0.1
		c0,0,0,0,0,0c0,0,0,0,0,0l9-5.6c0,0.1,0,0.2,0,0.3V21z M25.6,21"/>
</g>
<g>
	<path class="st1" d="M16,32C7.2,32,0,39.2,0,48c0,8.8,7.2,16,16,16c8.8,0,16-7.2,16-16C32,39.2,24.8,32,16,32L16,32z M16,37.6
		l9.5,5.9H6.5L16,37.6z M25.6,53L25.6,53c0,0.9-0.8,1.7-1.7,1.7H8.1c-0.9,0-1.7-0.8-1.7-1.7v-9.1c0-0.1,0-0.2,0-0.3l9,5.6
		c0,0,0,0,0,0c0,0,0,0,0,0c0.1,0,0.1,0.1,0.2,0.1c0,0,0,0,0,0c0.1,0,0.1,0,0.2,0h0c0.1,0,0.1,0,0.2,0c0,0,0,0,0,0
		c0.1,0,0.1,0,0.2-0.1c0,0,0,0,0,0c0,0,0,0,0,0l9-5.6c0,0.1,0,0.2,0,0.3V53z M25.6,53"/>
</g>
</svg>
