<?xml version="1.0" encoding="utf-8"?>
<!-- Generator: Adobe Illustrator 21.1.0, SVG Export Plug-In . SVG Version: 6.00 Build 0)  -->
<svg version="1.1" id="Layer_1" xmlns="http://www.w3.org/2000/svg" xmlns:xlink="http://www.w3.org/1999/xlink" x="0px" y="0px"
	 viewBox="0 0 227 71" style="enable-background:new 0 0 227 71;" xml:space="preserve">
<style type="text/css">
	.st0{fill:#C54531;}
	.st1{fill:#3B72B1;}
	.st2{fill:#C43A30;}
</style>
<g>
	<path class="st0" d="M5,22.1h2.1L15,44.5L22.4,22h1.4l7.4,22.5l7.9-22.4h1.9L32,47.5h-1.5l-7.4-21.9l-7.4,21.9h-1.5L5,22.1z"/>
	<path class="st0" d="M42.7,38.1L42.7,38.1c0-5.4,3.7-9.6,8.7-9.6c5.1,0,8.4,4.2,8.4,9.6c0,0.3,0,0.4,0,0.7H44.5
		c0.3,4.6,3.6,7.2,7.2,7.2c2.8,0,4.8-1.3,6.3-2.9l1.2,1.1c-1.9,2-4.1,3.5-7.6,3.5C46.8,47.7,42.7,43.9,42.7,38.1z M57.9,37.2
		c-0.3-3.7-2.4-7.1-6.6-7.1c-3.6,0-6.4,3.1-6.8,7.1H57.9z"/>
	<path class="st0" d="M66.7,43.3v4h-1.8V21h1.8v12c1.6-2.4,3.9-4.5,7.6-4.5c4.4,0,8.9,3.6,8.9,9.5v0.1c0,6-4.5,9.6-8.9,9.6
		C70.6,47.7,68.2,45.6,66.7,43.3z M81.3,38.2L81.3,38.2c0-4.9-3.3-8-7.2-8c-3.8,0-7.5,3.2-7.5,7.9v0.1c0,4.7,3.7,7.9,7.5,7.9
		C78.1,46,81.3,43.1,81.3,38.2z"/>
	<path class="st1" d="M89.1,22.1H91v11.7h16.1V22.1h1.9v25.2h-1.9V35.5H91v11.8h-1.9V22.1z"/>
	<path class="st1" d="M114.5,42L114.5,42c0-3.9,3.3-6,8-6c2.6,0,4.3,0.3,6.1,0.8v-0.8c0-3.7-2.3-5.6-6-5.6c-2.2,0-4.1,0.6-5.8,1.5
		l-0.6-1.5c2-0.9,4-1.6,6.5-1.6c2.5,0,4.5,0.7,5.8,2c1.2,1.2,1.9,2.9,1.9,5.2v11.4h-1.7v-3.1c-1.3,1.8-3.5,3.5-7,3.5
		C118.2,47.7,114.5,45.8,114.5,42z M128.7,40.4v-2.1c-1.5-0.4-3.6-0.8-6.2-0.8c-3.9,0-6,1.7-6,4.3v0.1c0,2.7,2.5,4.2,5.3,4.2
		C125.5,46.1,128.7,43.8,128.7,40.4z"/>
	<path class="st1" d="M136.7,21h1.8v19.7l11.4-11.8h2.3l-8,8.1l8.3,10.2h-2.2l-7.3-9l-4.5,4.5v4.5h-1.8V21z"/>
	<path class="st1" d="M154.7,38.1L154.7,38.1c0-5.4,3.7-9.6,8.7-9.6c5.1,0,8.4,4.2,8.4,9.6c0,0.3,0,0.4,0,0.7h-15.2
		c0.3,4.6,3.6,7.2,7.2,7.2c2.8,0,4.8-1.3,6.3-2.9l1.2,1.1c-1.9,2-4.1,3.5-7.6,3.5C158.9,47.7,154.7,43.9,154.7,38.1z M169.9,37.2
		c-0.3-3.7-2.4-7.1-6.6-7.1c-3.6,0-6.4,3.1-6.8,7.1H169.9z"/>
	<path class="st1" d="M175.8,38.2L175.8,38.2c0-6,4.5-9.7,8.9-9.7c3.7,0,6,2.1,7.6,4.4V21h1.8v26.3h-1.8v-4.1
		c-1.6,2.4-3.9,4.5-7.6,4.5C180.3,47.7,175.8,44.2,175.8,38.2z M192.4,38.1L192.4,38.1c0-4.8-3.7-8-7.5-8c-4,0-7.2,2.9-7.2,7.8v0.1
		c0,4.8,3.3,7.9,7.2,7.9C188.7,46,192.4,42.8,192.4,38.1z"/>
	<path class="st1" d="M200.8,21.7h2.2v2.4h-2.2V21.7z M201,28.9h1.8v18.4H201V28.9z"/>
	<path class="st1" d="M211.6,51.7l2.8-4.1c-2.3-0.3-4.6-1.3-6.2-2.6l1-1.4c2,1.5,4.2,2.4,6.6,2.4c2.5,0,4.4-1.4,4.4-3.5v-0.1
		c0-2.2-2.3-3-4.9-3.7c-3-0.9-6.3-1.8-6.3-5v-0.1c0-3,2.5-5.1,6-5.1c2.2,0,4.7,0.8,6.5,2l-0.9,1.5c-1.7-1.1-3.7-1.8-5.7-1.8
		c-2.5,0-4.2,1.4-4.2,3.2v0.1c0,2.1,2.5,2.8,5.1,3.6c3,0.8,6,1.9,6,5.1v0.1c0,3.2-2.6,5.2-6,5.4l-2.4,5L211.6,51.7z"/>
</g>
<g>
	<rect x="0.3" y="68" class="st1" width="85.5" height="3"/>
</g>
<rect x="154.8" y="-1" transform="matrix(6.123234e-17 -1 1 6.123234e-17 86.7499 225.7501)" class="st2" width="3" height="141"/>
</svg>
