<?xml version="1.0" encoding="utf-8"?>
<!-- Generator: Adobe Illustrator 21.1.0, SVG Export Plug-In . SVG Version: 6.00 Build 0)  -->
<svg version="1.1" id="Layer_1" xmlns="http://www.w3.org/2000/svg" xmlns:xlink="http://www.w3.org/1999/xlink" x="0px" y="0px"
	 viewBox="0 0 24 48" style="enable-background:new 0 0 24 48;" xml:space="preserve">
<style type="text/css">
	.st0{fill:#C8C8C8;}
	.st1{fill:#39B14A;}
</style>
<g>
	<path class="st0" d="M11.9,12.9h0.2c1.5,0,2.6-0.5,3.5-1.5c1.9-2.2,1.6-5.9,1.6-6.2c-0.1-2.6-1.4-3.9-2.4-4.5C14,0.3,13.1,0,12.1,0
		H12c-0.6,0-1.6,0.1-2.7,0.7C8.3,1.3,7,2.5,6.9,5.2c0,0.4-0.4,4.1,1.6,6.2C9.3,12.4,10.5,12.9,11.9,12.9L11.9,12.9z M8.2,5.3
		C8.2,5.3,8.2,5.3,8.2,5.3c0.2-3.6,2.7-4,3.8-4H12c1.3,0,3.6,0.6,3.8,3.9c0,0,0,0,0,0c0,0,0.4,3.4-1.2,5.2c-0.6,0.7-1.5,1.1-2.6,1.1
		h0c-1.1,0-1.9-0.4-2.6-1.1C7.8,8.8,8.2,5.4,8.2,5.3L8.2,5.3z M8.2,5.3"/>
	<path class="st0" d="M22.2,19.1L22.2,19.1c0-0.1,0-0.1,0-0.1c0-1-0.1-3.3-2.3-4c0,0,0,0,0,0c-2.2-0.6-4.1-1.9-4.1-1.9
		c-0.3-0.2-0.7-0.1-0.9,0.2c-0.2,0.3-0.1,0.7,0.2,0.9c0.1,0.1,2.1,1.4,4.5,2.1c1.2,0.4,1.3,1.6,1.3,2.8c0,0,0,0.1,0,0.1
		c0,0.4,0,1.1-0.1,1.5c-0.8,0.5-4,2-8.8,2c-4.8,0-8-1.6-8.8-2c-0.1-0.4-0.1-1.1-0.1-1.5c0,0,0-0.1,0-0.1c0-1.1,0.2-2.4,1.3-2.8
		c2.5-0.6,4.5-2,4.5-2.1c0.3-0.2,0.4-0.6,0.2-0.9c-0.2-0.3-0.6-0.4-0.9-0.2c0,0-1.9,1.3-4.1,1.9c0,0,0,0,0,0c-2.2,0.7-2.2,3-2.3,4
		c0,0,0,0.1,0,0.1v0c0,0.3,0,1.6,0.3,2.3c0,0.1,0.1,0.2,0.3,0.3C2.5,21.7,6,24,12,24s9.6-2.3,9.7-2.4c0.1-0.1,0.2-0.2,0.3-0.3
		C22.2,20.7,22.2,19.3,22.2,19.1L22.2,19.1z M22.2,19.1"/>
</g>
<g>
	<path class="st1" d="M11.9,36.9h0.2c1.5,0,2.6-0.5,3.5-1.5c1.9-2.2,1.6-5.9,1.6-6.2c-0.1-2.6-1.4-3.9-2.4-4.5
		C14,24.3,13.1,24,12.1,24H12c-0.6,0-1.6,0.1-2.7,0.7c-1,0.6-2.3,1.9-2.4,4.5c0,0.4-0.4,4.1,1.6,6.2C9.3,36.4,10.5,36.9,11.9,36.9
		L11.9,36.9z M8.2,29.3C8.2,29.3,8.2,29.3,8.2,29.3c0.2-3.6,2.7-4,3.8-4H12c1.3,0,3.6,0.6,3.8,3.9c0,0,0,0,0,0c0,0,0.4,3.4-1.2,5.2
		c-0.6,0.7-1.5,1.1-2.6,1.1h0c-1.1,0-1.9-0.4-2.6-1.1C7.8,32.8,8.2,29.4,8.2,29.3L8.2,29.3z M8.2,29.3"/>
	<path class="st1" d="M22.2,43.1L22.2,43.1c0-0.1,0-0.1,0-0.1c0-1-0.1-3.3-2.3-4c0,0,0,0,0,0c-2.2-0.6-4.1-1.9-4.1-1.9
		c-0.3-0.2-0.7-0.1-0.9,0.2c-0.2,0.3-0.1,0.7,0.2,0.9c0.1,0.1,2.1,1.4,4.5,2.1c1.2,0.4,1.3,1.6,1.3,2.8c0,0,0,0.1,0,0.1
		c0,0.4,0,1.1-0.1,1.5c-0.8,0.5-4,2-8.8,2c-4.8,0-8-1.6-8.8-2c-0.1-0.4-0.1-1.1-0.1-1.5c0,0,0-0.1,0-0.1c0-1.1,0.2-2.4,1.3-2.8
		c2.5-0.6,4.5-2,4.5-2.1c0.3-0.2,0.4-0.6,0.2-0.9c-0.2-0.3-0.6-0.4-0.9-0.2c0,0-1.9,1.3-4.1,1.9c0,0,0,0,0,0c-2.2,0.7-2.2,3-2.3,4
		c0,0,0,0.1,0,0.1v0c0,0.3,0,1.6,0.3,2.3c0,0.1,0.1,0.2,0.3,0.3C2.5,45.7,6,48,12,48s9.6-2.3,9.7-2.4c0.1-0.1,0.2-0.2,0.3-0.3
		C22.2,44.7,22.2,43.3,22.2,43.1L22.2,43.1z M22.2,43.1"/>
</g>
</svg>
