<?xml version="1.0" encoding="utf-8"?>
<!-- Generator: Adobe Illustrator 21.1.0, SVG Export Plug-In . SVG Version: 6.00 Build 0)  -->
<svg version="1.1" id="Layer_1" xmlns="http://www.w3.org/2000/svg" xmlns:xlink="http://www.w3.org/1999/xlink" x="0px" y="0px"
	 viewBox="0 0 24 24" style="enable-background:new 0 0 24 24;" xml:space="preserve">
<style type="text/css">
	.st0{fill:#39B14A;}
</style>
<g>
	<g>
		<g>
			<path class="st0" d="M12,24C5.4,24,0,18.6,0,12S5.4,0,12,0s12,5.4,12,12S18.6,24,12,24z M12,2.1c-5.5,0-9.9,4.4-9.9,9.9
				c0,5.5,4.4,9.9,9.9,9.9s9.9-4.4,9.9-9.9C21.9,6.5,17.5,2.1,12,2.1z"/>
		</g>
	</g>
	<g>
		<g>
			<path class="st0" d="M18.9,15.5H5.1c-0.6,0-1-0.5-1-1s0.5-1,1-1h13.7c0.6,0,1,0.5,1,1S19.4,15.5,18.9,15.5z"/>
		</g>
		<g>
			<path class="st0" d="M18.9,10.6H5.1c-0.6,0-1-0.5-1-1c0-0.6,0.5-1,1-1h13.7c0.6,0,1,0.5,1,1C19.9,10.1,19.4,10.6,18.9,10.6z"/>
		</g>
	</g>
</g>
</svg>
