<?xml version="1.0" encoding="utf-8"?>
<!-- Generator: Adobe Illustrator 21.1.0, SVG Export Plug-In . SVG Version: 6.00 Build 0)  -->
<svg version="1.1" id="Layer_1" xmlns="http://www.w3.org/2000/svg" xmlns:xlink="http://www.w3.org/1999/xlink" x="0px" y="0px"
	 viewBox="0 0 24 24" style="enable-background:new 0 0 24 24;" xml:space="preserve">
<style type="text/css">
	.st0{fill:#C8C8C8;}
	.st1{fill:#FFFFFF;}
	.st2{fill:#39B14A;}
</style>
<g>
	<g>
		<path class="st0" d="M12.8,24C5.5,24.4-0.4,18.5,0,11.2C0.4,5.2,5.2,0.4,11.2,0C18.5-0.4,24.4,5.5,24,12.8
			C23.6,18.7,18.7,23.6,12.8,24L12.8,24z"/>
		<path class="st1" d="M12.4,18.4c-3.9,0.2-7.1-3-6.9-6.9c0.2-3.2,2.8-5.8,6-6c3.9-0.2,7.1,3,6.9,6.9C18.2,15.6,15.6,18.2,12.4,18.4
			L12.4,18.4z"/>
		<path class="st0" d="M12.4,18.4"/>
	</g>
	<path class="st2" d="M16.4,10.8c-2.2,0.1-4-1.7-3.8-3.8c0.1-1.8,1.6-3.3,3.4-3.4c2.2-0.1,4,1.7,3.8,3.8
		C19.6,9.2,18.2,10.6,16.4,10.8L16.4,10.8z"/>
</g>
</svg>
