<?xml version="1.0" encoding="utf-8"?>
<!-- Generator: Adobe Illustrator 21.1.0, SVG Export Plug-In . SVG Version: 6.00 Build 0)  -->
<svg version="1.1" id="Layer_1" xmlns="http://www.w3.org/2000/svg" xmlns:xlink="http://www.w3.org/1999/xlink" x="0px" y="0px"
	 viewBox="0 0 32 64" style="enable-background:new 0 0 32 64;" xml:space="preserve">
<style type="text/css">
	.st0{fill:#39B14A;}
	.st1{fill:#662D8D;}
	.st2{fill:#FFFFFF;}
	.st3{fill:#D4145A;}
</style>
<g>
	<g>
		<path class="st0" d="M15.6,14.9h0.2c1.7,0,3-0.6,4-1.7c2.2-2.5,1.8-6.7,1.8-7.1c-0.1-3-1.6-4.5-2.8-5.2C17.9,0.3,16.9,0,15.8,0
			h-0.1c-0.6,0-1.9,0.1-3.1,0.8C11.4,1.5,9.9,2.9,9.8,6c0,0.4-0.4,4.7,1.8,7.1C12.6,14.3,13.9,14.8,15.6,14.9L15.6,14.9z M11.3,6.1
			C11.3,6.1,11.3,6.1,11.3,6.1c0.2-4.1,3.1-4.6,4.4-4.6h0.1c1.5,0,4.2,0.7,4.3,4.5c0,0,0,0,0,0c0,0,0.4,3.9-1.4,6
			c-0.7,0.8-1.7,1.2-2.9,1.2h-0.1c-1.3,0-2.2-0.4-2.9-1.2C10.9,10.1,11.3,6.2,11.3,6.1L11.3,6.1z M11.3,6.1"/>
		<path class="st0" d="M27.4,21.9L27.4,21.9c0-0.1,0-0.1,0-0.2c0-1.1-0.1-3.8-2.6-4.6c0,0,0,0-0.1,0C22.2,16.5,20.1,15,20,15
			c-0.3-0.2-0.8-0.2-1.1,0.2c-0.2,0.3-0.2,0.8,0.2,1.1c0.1,0.1,2.4,1.7,5.2,2.4c1.3,0.5,1.5,1.9,1.5,3.2c0,0.1,0,0.1,0,0.1
			c0,0.5,0,1.3-0.1,1.8c-0.9,0.5-4.6,2.3-10.1,2.3c-5.5,0-9.2-1.8-10.1-2.3c-0.1-0.5-0.1-1.3-0.1-1.8c0,0,0-0.1,0-0.1
			c0-1.3,0.2-2.7,1.5-3.2c2.8-0.7,5.1-2.3,5.2-2.4c0.3-0.2,0.4-0.7,0.2-1.1c-0.2-0.3-0.7-0.4-1.1-0.2c0,0-2.2,1.5-4.7,2.2
			c0,0,0,0-0.1,0C4.1,18,4,20.6,4,21.8c0,0.1,0,0.1,0,0.1v0c0,0.3,0,1.8,0.3,2.6c0.1,0.1,0.2,0.3,0.3,0.4c0.2,0.1,4.3,2.7,11.2,2.7
			s11-2.6,11.2-2.7c0.1-0.1,0.2-0.2,0.3-0.4C27.4,23.7,27.4,22.2,27.4,21.9L27.4,21.9z M27.4,21.9"/>
	</g>
	<g>
		<circle class="st1" cx="22.8" cy="24.6" r="7.4"/>
	</g>
	<g>
		<path class="st2" d="M22,25.7l-2.6-4.4h1.8l1.7,2.8l1.7-2.8h1.8l-2.7,4.4v2.8H22V25.7z"/>
	</g>
</g>
<g>
	<g>
		<path class="st0" d="M15.6,46.9h0.2c1.7,0,3-0.6,4-1.7c2.2-2.5,1.8-6.7,1.8-7.1c-0.1-3-1.6-4.5-2.8-5.2c-0.9-0.5-1.9-0.8-3.1-0.8
			h-0.1c-0.6,0-1.9,0.1-3.1,0.8c-1.2,0.7-2.7,2.1-2.8,5.2c0,0.4-0.4,4.7,1.8,7.1C12.6,46.3,13.9,46.8,15.6,46.9L15.6,46.9z
			 M11.3,38.1C11.3,38.1,11.3,38.1,11.3,38.1c0.2-4.1,3.1-4.6,4.4-4.6h0.1c1.5,0,4.2,0.7,4.3,4.5c0,0,0,0,0,0c0,0,0.4,3.9-1.4,6
			c-0.7,0.8-1.7,1.2-2.9,1.2h-0.1c-1.3,0-2.2-0.4-2.9-1.2C10.9,42.1,11.3,38.2,11.3,38.1L11.3,38.1z M11.3,38.1"/>
		<path class="st0" d="M27.4,53.9L27.4,53.9c0-0.1,0-0.1,0-0.2c0-1.1-0.1-3.8-2.6-4.6c0,0,0,0-0.1,0C22.2,48.5,20.1,47,20,47
			c-0.3-0.2-0.8-0.2-1.1,0.2c-0.2,0.3-0.2,0.8,0.2,1.1c0.1,0.1,2.4,1.7,5.2,2.4c1.3,0.5,1.5,1.9,1.5,3.2c0,0.1,0,0.1,0,0.1
			c0,0.5,0,1.3-0.1,1.8c-0.9,0.5-4.6,2.3-10.1,2.3c-5.5,0-9.2-1.8-10.1-2.3c-0.1-0.5-0.1-1.3-0.1-1.8c0,0,0-0.1,0-0.1
			c0-1.3,0.2-2.7,1.5-3.2c2.8-0.7,5.1-2.3,5.2-2.4c0.3-0.2,0.4-0.7,0.2-1.1c-0.2-0.3-0.7-0.4-1.1-0.2c0,0-2.2,1.5-4.7,2.2
			c0,0,0,0-0.1,0C4.1,50,4,52.6,4,53.8c0,0.1,0,0.1,0,0.1v0c0,0.3,0,1.8,0.3,2.6c0.1,0.1,0.2,0.3,0.3,0.4c0.2,0.1,4.3,2.7,11.2,2.7
			s11-2.6,11.2-2.7c0.1-0.1,0.2-0.2,0.3-0.4C27.4,55.7,27.4,54.2,27.4,53.9L27.4,53.9z M27.4,53.9"/>
	</g>
	<g>
		<circle class="st3" cx="22.8" cy="56.6" r="7.4"/>
	</g>
	<g>
		<path class="st2" d="M22,57.7l-2.6-4.4h1.8l1.7,2.8l1.7-2.8h1.8l-2.7,4.4v2.8H22V57.7z"/>
	</g>
</g>
</svg>
